<svg class="icon" style="width: 1em;height: 1em;vertical-align: middle;fill: currentColor;overflow: hidden;" viewBox="0 0 1024 1024" version="1.1" xmlns="http://www.w3.org/2000/svg" p-id="747"><path d="M429.969196 358.3317l-71.53448 71.513876-58.492622-48.252808-95.537264-78.786823a128.564271 128.564271 0 0 1-22.230906-23.631926l-38.219026-52.6413c-17.100696-23.52891-14.545894-55.99963 6.016149-76.561672 11.455406-11.455406 26.598794-17.306729 41.824595-17.306729 12.17652 0 24.41485 3.749791 34.881299 11.393596l54.701626 40.011509c8.715174 6.345801 16.565012 13.783573 23.425893 22.107286l87.893459 106.848447z" fill="#FEA95C" p-id="748"></path><path d="M392.697919 313.025156l-87.893459-106.848447a128.067733 128.067733 0 0 0-23.425893-22.107286l-54.701626-40.011509a59.015945 59.015945 0 0 0-34.881299-11.393596c-7.221439 0-14.418153 1.33303-21.217226 3.937281a59.193133 59.193133 0 0 1 13.771211 7.456315l54.701626 40.011509c8.715174 6.345801 16.565012 13.783573 23.425893 22.107286l87.893459 106.848447c6.129466 7.452195 4.584223 18.544984-3.350088 24.03575a213.426992 213.426992 0 0 0-47.078423 44.531862l35.301606 29.122692 23.191016 19.132177 71.53448-71.513876z" fill="#FE9738" p-id="749"></path><path d="M665.699205 594.061709l-71.522118 71.522117 127.02933 154.027827a128.584875 128.584875 0 0 0 23.644288 22.232966l52.63718 38.229327c23.52891 17.088334 55.991388 14.531471 76.55549-6.030571 20.61355-20.61355 23.127147-53.176985 5.919314-76.710015l-39.999147-54.699565a128.626081 128.626081 0 0 0-22.111407-23.409411z" fill="#FEA95C" p-id="750"></path><path d="M879.960628 797.33336l-39.999146-54.699565a128.564271 128.564271 0 0 0-22.113467-23.409411l-152.150871-125.162675-18.990014 18.990014 129.06493 106.172661a128.626081 128.626081 0 0 1 22.111407 23.409411l39.999147 54.699565c17.207833 23.533031 14.696297 56.096465-5.919314 76.710015a58.882024 58.882024 0 0 1-20.813401 13.423017c21.330543 8.146525 46.083286 3.383053 62.889356-13.423017 20.615611-20.61355 23.129207-53.176985 5.921373-76.710015z" fill="#FE9738" p-id="751"></path><path d="M516.544046 337.810865l-27.175684 7.478979-70.339491 19.367054-71.143018-186.562417a128.74558 128.74558 0 0 1-7.643805-31.543573l-7.211137-64.652995c-3.23471-28.885755 15.019768-55.855407 43.06079-63.561022 5.233225-1.442227 10.507657-2.142738 15.720278-2.142738 10.054385 0 19.861532 2.596009 28.494293 7.375963 10.919722 5.974942 19.985151 15.452436 25.403806 27.525941l27.793782 61.809746c4.409095 9.82775 7.581995 20.17058 9.415685 30.781253z" fill="#FEA95C" p-id="752"></path><path d="M516.544046 337.810865l-27.175684 7.478979h-72.2968l-19.099211-198.738936c-1.030162-10.796102-0.70051-21.695221 1.009559-32.429514l10.178005-64.261532c1.565847-9.82775 5.480464-18.76956 11.146357-26.289746 10.919722 5.974942 19.985151 15.452436 25.403806 27.525941l27.793782 61.809746c4.409095 9.82775 7.581995 20.17058 9.415685 30.781253z" fill="#FE9738" p-id="753"></path><path d="M605.078266 659.172095l-97.523417 26.835732 34.320892 196.680672a128.634323 128.634323 0 0 0 9.568148 31.012009l26.868697 59.246702c12.011694 26.483416 41.497003 40.302015 69.535964 32.588159 28.109012-7.73446 46.384094-34.803008 43.052548-63.764995l-7.7427-67.319054a128.634323 128.634323 0 0 0-7.656168-31.279852z" fill="#FEA95C" p-id="754"></path><path d="M690.901098 941.770374l-7.7427-67.319054a128.634323 128.634323 0 0 0-7.656168-31.279852l-70.423964-183.999373-38.066562 10.474692 66.414572 173.524681a128.611659 128.611659 0 0 1 7.656167 31.279852l7.742701 67.319054c3.113151 27.074729-12.656576 52.490897-37.689523 62.007537a58.952075 58.952075 0 0 0 36.712929 1.757458c28.109012-7.73446 46.384094-34.803008 43.052548-63.764995z" fill="#FE9738" p-id="755"></path><path d="M665.620912 429.919748l-71.522117-71.522117 127.029329-154.027827a128.584875 128.584875 0 0 1 23.644289-22.232965l52.637179-38.229328c23.52891-17.090395 55.991388-14.531471 76.555491 6.030571 20.61355 20.61355 23.127147 53.176985 5.919313 76.710015l-39.999146 54.699565a128.626081 128.626081 0 0 1-22.111407 23.409411z" fill="#FEA95C" p-id="756"></path><path d="M873.963023 149.938082c-16.80607-16.80607-41.558813-21.569541-62.889356-13.423017a58.910869 58.910869 0 0 1 20.813401 13.423017c20.61355 20.61355 23.127147 53.176985 5.919314 76.710015l-39.999147 54.699565a128.626081 128.626081 0 0 1-22.111407 23.409411l-129.06493 106.172661 18.990014 18.990014 152.150871-125.162675a128.626081 128.626081 0 0 0 22.111406-23.409411l39.999147-54.699565c17.207833-23.533031 14.694237-56.096465-5.919313-76.710015z" fill="#FE9738" p-id="757"></path><path d="M429.886783 665.649757l-9.147843 11.125754-28.102831 34.160186-87.914062 106.869051a127.948234 127.948234 0 0 1-23.40529 22.107286l-54.701625 40.011509a59.015945 59.015945 0 0 1-34.8813 11.393596c-1.607053 0-3.193504-0.06181-4.800557-0.206032-13.577541-1.091972-26.784223-6.840279-37.044641-17.100697-20.562042-20.562042-23.116845-53.032762-6.016149-76.561672l38.219026-52.6413a129.264782 129.264782 0 0 1 22.230906-23.631926l95.57847-78.828029 58.451416-48.211602z" fill="#FEA95C" p-id="758"></path><path d="M429.886783 665.649757l-71.53448-71.513876-58.451416 48.211602a213.818454 213.818454 0 0 0 10.173884 12.139434c5.185838 5.742125 5.76891 14.278051 1.320669 20.609429L226.965387 795.223588a127.956476 127.956476 0 0 0-15.163991 28.700325l-22.910813 60.8826c-0.782923 2.080928-1.442227 4.182459-1.957308 6.304594 1.607053 0.144223 3.193504 0.206032 4.800557 0.206032 12.17652 0 24.41485-3.749791 34.8813-11.393596l54.701625-40.011509c8.694571-6.345801 16.565012-13.783573 23.40529-22.107286l87.914062-106.869051 28.102831-34.160186-0.00206-0.00206z" fill="#FE9738" p-id="759"></path><path d="M686.129386 516.509021l-26.835731-97.523417 186.550054-71.134776a128.704374 128.704374 0 0 1 31.541513-7.645866l64.652995-7.225559c28.900177-3.230589 55.859528 15.036251 63.575444 43.073151 7.73446 28.109012-6.172733 57.658191-32.761226 69.614257l-61.803565 27.787601a128.545729 128.545729 0 0 1-30.791555 9.423926z" fill="#FEA95C" p-id="760"></path><path d="M1005.611601 376.056675c-7.715917-28.038961-34.673207-46.303741-63.575445-43.073152l-18.65006 2.082989c19.053884 5.676195 34.590794 20.798979 40.14749 40.990163 7.73446 28.109012-6.172733 57.658191-32.761226 69.614257l-61.803565 27.787601a128.545729 128.545729 0 0 1-30.791555 9.423926l-153.963956 26.668845 1.914042 6.957717 194.125869-33.626562a128.704374 128.704374 0 0 0 30.791555-9.423926l61.803565-27.787601c26.590553-11.956065 40.497746-41.507305 32.763286-69.614257z" fill="#FE9738" p-id="761"></path><path d="M364.759914 605.034999l-71.967148 27.546544-112.019862 42.87536a129.06493 129.06493 0 0 1-31.275732 7.664409l-67.331416 7.746821c-2.266357 0.267842-4.532715 0.391462-6.778469 0.391462-26.289745 0-49.859862-17.553968-56.988586-43.452251-7.705615-28.041021 6.119165-57.52427 32.594339-69.535965l59.254943-26.866636c9.889559-4.491508 20.314803-7.705615 31.00789-9.559907l114.265617-19.943945 82.412994-14.381067z" fill="#FEA95C" p-id="762"></path><path d="M364.759914 605.034999l-71.967148 27.546544a211.368728 211.368728 0 0 1-37.271276-110.680652l82.412994-14.381067z" fill="#FE9738" p-id="763"></path><path d="M562.619091 345.298085H461.471563l-19.09097-198.736876a128.68171 128.68171 0 0 1 0.997197-32.439815l10.186246-64.251231C458.117354 21.147174 482.880399 0 511.961884 0c29.153597 0 53.955788 21.24813 58.426692 50.057653l10.394339 66.960558a128.61578 128.61578 0 0 1 0.916845 32.188455z" fill="#FFD15B" p-id="764"></path><path d="M580.782915 117.018211l-10.394339-66.960558C565.917672 21.24813 541.11342 0 511.961884 0c-7.744761 0-15.176353 1.512278-22.00633 4.254571 18.882877 7.579935 33.136205 24.645606 36.420363 45.801022l10.394339 66.960558a128.613719 128.613719 0 0 1 0.916844 32.188455l-19.082729 196.089358h44.01472l19.082729-196.089358a128.605478 128.605478 0 0 0-0.918905-32.186395z" fill="#FFC344" p-id="765"></path><path d="M562.619091 678.683372H461.471563l-19.09097 198.736876a128.68171 128.68171 0 0 0 0.997197 32.439815l10.186246 64.251231c4.553318 28.720929 29.316362 49.868103 58.397848 49.868103 29.153597 0 53.955788-21.24813 58.426692-50.057653l10.394339-66.960558a128.61578 128.61578 0 0 0 0.916845-32.188456z" fill="#FFD15B" p-id="766"></path><path d="M581.70182 874.774791l-19.082729-196.089359H518.604371l19.082729 196.089359a128.613719 128.613719 0 0 1-0.916844 32.188455l-10.394339 66.960558c-3.284158 21.155416-17.537485 38.221087-36.420363 45.801022a58.972679 58.972679 0 0 0 22.00633 4.254571c29.153597 0 53.955788-21.24813 58.426692-50.057653l10.394339-66.960558a128.599297 128.599297 0 0 0 0.918905-32.186395z" fill="#FFC344" p-id="767"></path><path d="M638.346332 392.024193l-87.934665-49.983481 81.611528-182.211011a128.634323 128.634323 0 0 1 16.898784-27.709309l40.606943-50.824094c18.151462-22.719202 50.129764-28.867212 75.412011-14.496445 25.344056 14.405791 36.40594 45.135537 26.058989 72.389514l-24.052233 63.350869a128.68171 128.68171 0 0 1-15.108362 28.438664z" fill="#FFD15B" p-id="768"></path><path d="M764.940933 66.799853c-16.122042-9.164325-34.963713-9.971972-51.209375-3.471648a59.411528 59.411528 0 0 1 7.194655 3.471648c25.344056 14.405791 36.40594 45.135537 26.058988 72.389514l-24.052232 63.350869a128.621961 128.621961 0 0 1-15.108362 28.436603l-100.90235 143.182277 31.426135 17.863016 113.490935-161.045293a128.582814 128.582814 0 0 0 15.108362-28.436603l24.052233-63.350869c10.346951-27.253977-0.714933-57.983723-26.058989-72.389514z" fill="#FFC344" p-id="769"></path><path d="M473.711953 681.860393l-87.934665-49.983481-114.805422 163.342555a128.621961 128.621961 0 0 0-15.163991 28.696205l-22.89433 60.892901c-10.233634 27.221012 0.844733 57.84156 26.126979 72.212326 25.344056 14.405791 57.406832 8.189791 75.53151-14.644789l42.127462-53.078089a128.597237 128.597237 0 0 0 16.705114-27.530061z" fill="#FFD15B" p-id="770"></path><path d="M385.777288 631.876912l-12.563861 17.877439 56.485866 32.106042-80.309403 179.905507a128.545729 128.545729 0 0 1-16.705114 27.53006l-42.127462 53.07809a58.931472 58.931472 0 0 1-24.320075 18.116436c23.965699 9.6382 51.889282 2.604251 68.334795-18.116436l42.127462-53.07809a128.597237 128.597237 0 0 0 16.705114-27.53006l80.309403-179.905507z" fill="#FFC344" p-id="771"></path><path d="M678.683372 562.619091V461.471563l198.736876-19.09097a128.68171 128.68171 0 0 1 32.439815 0.997197l64.251231 10.186246c28.720929 4.553318 49.868103 29.316362 49.868103 58.397848 0 29.153597-21.24813 53.955788-50.057653 58.426692l-66.960558 10.394339a128.61578 128.61578 0 0 1-32.188456 0.916845z" fill="#FFD15B" p-id="772"></path><path d="M974.113354 453.564036l-64.251231-10.186246a128.584875 128.584875 0 0 0-32.439815-0.997197l-11.123694 1.069308 63.80208 10.116195c28.720929 4.553318 49.868103 29.316362 49.868103 58.397848 0 29.153597-21.24813 53.955788-50.057653 58.426693l-66.037532 10.252176 10.903239 1.061068a128.613719 128.613719 0 0 0 32.188455-0.916845l66.960559-10.394339c28.807462-4.475026 50.055593-29.279277 50.055592-58.430813 0-29.081485-21.147174-53.84453-49.868103-58.397848z" fill="#FFC344" p-id="773"></path><path d="M345.289844 461.471563v101.141347l-81.836104 7.952854-114.245013 11.125755c-10.734293 1.050766-21.550998 0.741717-32.182275-0.906543l-66.960558-10.404641A59.075695 59.075695 0 0 1 0 511.970125c0-29.091787 21.138933-53.856892 49.859862-58.41021l64.261532-10.178004c10.734293-1.71007 21.633411-2.039722 32.429514-1.00956l116.841023 11.228771z" fill="#FFD15B" p-id="774"></path><path d="M345.289844 461.471563v101.141347l-81.836104 7.952854c-5.315638-18.604734-8.158886-38.260233-8.158886-58.575035 0-20.252993 2.822645-39.82608 8.097077-58.389607z" fill="#FFC344" p-id="775"></path><path d="M631.957264 638.346332l49.983482-87.934665 182.21101 81.611528a128.634323 128.634323 0 0 1 27.709309 16.898784l50.824094 40.606943c22.719202 18.151462 28.867212 50.129764 14.496445 75.412011-14.405791 25.344056-45.135537 36.40594-72.389514 26.058989l-63.350869-24.052233a128.68171 128.68171 0 0 1-28.438664-15.108362z" fill="#FFD15B" p-id="776"></path><path d="M942.685159 689.528922l-50.824094-40.606943a128.634323 128.634323 0 0 0-27.709309-16.898784l-182.21101-81.611528-8.931509 15.714097 147.127799 65.897431a128.634323 128.634323 0 0 1 27.709309 16.898784l50.824094 40.606943c22.719202 18.151462 28.867212 50.129764 14.496445 75.412011a58.97886 58.97886 0 0 1-29.421439 25.661346l1.044585 0.397643c27.253977 10.346951 57.983723-0.712872 72.389514-26.058989 14.372826-25.282246 8.224817-57.260549-14.494385-75.412011z" fill="#FFC344" p-id="777"></path><path d="M392.100425 385.775227l-49.983481 87.934666-74.480744-33.253644-105.426824-47.05782a128.209896 128.209896 0 0 1-27.52594-16.709234l-53.073968-42.11304a59.137505 59.137505 0 0 1-22.375128-46.35731c0-9.951369 2.513596-20.005754 7.726218-29.1742 14.381068-25.280186 44.997495-36.364734 72.214387-26.124919l60.882599 22.890209c10.178005 3.811601 19.820325 8.921207 28.700326 15.163991l106.477589 74.830999z" fill="#FFD15B" p-id="778"></path><path d="M392.100425 385.775227l-49.983481 87.934666-74.480744-33.253644c13.392112-37.559722 37.065244-70.236475 67.599259-94.651324z" fill="#FFC344" p-id="779"></path><path d="M511.990729 511.990729m-212.687336 0a212.687336 212.687336 0 1 0 425.374671 0 212.687336 212.687336 0 1 0-425.374671 0Z" fill="#FE646F" p-id="780"></path><path d="M511.990729 299.303393c-7.431592 0-14.772529 0.385281-22.00633 1.126998 107.122471 11.012436 190.681006 101.526628 190.681005 211.560338s-83.556475 200.547902-190.681005 211.560337c7.233801 0.743777 14.576798 1.126998 22.00633 1.126998 117.463241 0 212.687336-95.224095 212.687335-212.687335S629.45397 299.303393 511.990729 299.303393z" fill="#FD4755" p-id="781"></path><path d="M437.322495 623.93642m-15.85832 0a15.85832 15.85832 0 1 0 31.716641 0 15.85832 15.85832 0 1 0-31.716641 0Z" fill="#FD4755" p-id="782"></path><path d="M511.990729 623.93642m-15.858321 0a15.85832 15.85832 0 1 0 31.716641 0 15.85832 15.85832 0 1 0-31.716641 0Z" fill="#FD4755" p-id="783"></path><path d="M586.658962 623.93642m-15.858321 0a15.85832 15.85832 0 1 0 31.716641 0 15.85832 15.85832 0 1 0-31.716641 0Z" fill="#FD4755" p-id="784"></path><path d="M366.774912 549.305272m-15.858321 0a15.85832 15.85832 0 1 0 31.716641 0 15.85832 15.85832 0 1 0-31.716641 0Z" fill="#FD4755" p-id="785"></path><path d="M437.322495 549.305272m-15.85832 0a15.85832 15.85832 0 1 0 31.716641 0 15.85832 15.85832 0 1 0-31.716641 0Z" fill="#FD4755" p-id="786"></path><path d="M511.990729 549.305272m-15.858321 0a15.85832 15.85832 0 1 0 31.716641 0 15.85832 15.85832 0 1 0-31.716641 0Z" fill="#FD4755" p-id="787"></path><path d="M586.658962 549.305272m-15.858321 0a15.85832 15.85832 0 1 0 31.716641 0 15.85832 15.85832 0 1 0-31.716641 0Z" fill="#FD4755" p-id="788"></path><path d="M657.206546 549.305272m-15.858321 0a15.85832 15.85832 0 1 0 31.716641 0 15.85832 15.85832 0 1 0-31.716641 0Z" fill="#FD4755" p-id="789"></path><path d="M366.774912 474.676185m-15.858321 0a15.85832 15.85832 0 1 0 31.716641 0 15.85832 15.85832 0 1 0-31.716641 0Z" fill="#FD4755" p-id="790"></path><path d="M437.322495 474.676185m-15.85832 0a15.85832 15.85832 0 1 0 31.716641 0 15.85832 15.85832 0 1 0-31.716641 0Z" fill="#FD4755" p-id="791"></path><path d="M511.990729 474.676185m-15.858321 0a15.85832 15.85832 0 1 0 31.716641 0 15.85832 15.85832 0 1 0-31.716641 0Z" fill="#FD4755" p-id="792"></path><path d="M586.658962 474.676185m-15.858321 0a15.85832 15.85832 0 1 0 31.716641 0 15.85832 15.85832 0 1 0-31.716641 0Z" fill="#FD4755" p-id="793"></path><path d="M657.206546 474.676185m-15.858321 0a15.85832 15.85832 0 1 0 31.716641 0 15.85832 15.85832 0 1 0-31.716641 0Z" fill="#FD4755" p-id="794"></path><path d="M437.322495 400.045037m-15.85832 0a15.85832 15.85832 0 1 0 31.716641 0 15.85832 15.85832 0 1 0-31.716641 0Z" fill="#FD4755" p-id="795"></path><path d="M511.990729 400.045037m-15.858321 0a15.85832 15.85832 0 1 0 31.716641 0 15.85832 15.85832 0 1 0-31.716641 0Z" fill="#FD4755" p-id="796"></path><path d="M586.658962 400.045037m-15.858321 0a15.85832 15.85832 0 1 0 31.716641 0 15.85832 15.85832 0 1 0-31.716641 0Z" fill="#FD4755" p-id="797"></path></svg>