<svg class="icon" style="width: 1em;height: 1em;vertical-align: middle;fill: currentColor;overflow: hidden;" viewBox="0 0 1024 1024" version="1.1" xmlns="http://www.w3.org/2000/svg" p-id="639"><path d="M549.642817 445.862374l-72.112676 75.841932-13.577787 14.27831-17.059799-10.033964-100.854728-59.317827a146.116765 146.116765 0 0 1-70.876459-107.262455l-9.951549-76.851509c-1.401046-10.837505-1.586479-21.778028-0.535694-32.65674l17.162817-179.910825c1.277425-13.371751 8.859557-25.136419 20.109134-31.894407a42.464064 42.464064 0 0 1 6.88161-3.337786l21.839839-8.179638 3.35839-1.256821c17.657304-6.613763 37.560402-0.597505 48.603944 14.669779l67.332636 93.087163a252.07501 252.07501 0 0 1 39.600161 83.794929z" fill="#FEA95C" p-id="640"></path><path d="M477.530141 521.704306l-13.577787 14.27831-17.059799-10.033964-16.709537-116.163219c-1.215614-8.447485 4.635815-16.276861 13.0833-17.492475 8.468089-1.215614 16.297465 4.635815 17.513078 13.0833z" fill="#FE9738" p-id="641"></path><path d="M489.562656 216.840757a252.136821 252.136821 0 0 0-39.59398-83.805232L382.63398 39.950423a41.864499 41.864499 0 0 0-48.608065-14.665658l-7.996265 2.995766a41.773843 41.773843 0 0 1 12.926712 11.671952l67.332636 93.083042c38.776016 44.454374 69.551646 200.58862 90.84961 282.148056a58.269103 58.269103 0 0 1-14.181473 54.867445l-47.013344 49.454873 28.018865 16.476717 85.67398-90.126423z" fill="#FE9738" p-id="642"></path><path d="M544.100443 591.072579v412.707027a13.581907 13.581907 0 0 1-13.581908 13.581907h-37.03707a13.581907 13.581907 0 0 1-13.581908-13.581907V591.072579z" fill="#6FD7A3" p-id="643"></path><path d="M544.100443 591.072579h-0.002061v-0.00412H512v0.00412h-32.100443v142.989135l18.481449 61.398793a149.621441 149.621441 0 0 0 4.940749 13.88066c5.682479 13.781763 8.678245 28.519533 8.678245 43.426254v143.601062c0 9.358165-5.814342 17.731477-14.583243 20.999211h33.099718a13.581907 13.581907 0 0 0 13.581907-13.581907z" fill="#3EC3A4" p-id="644"></path><path d="M505.159598 672.831871l-11.455614 82.929578c-2.513642 18.296016-7.788169 35.994527-15.514527 52.539235s-17.945755 31.91501-30.349135 45.595815a183.396958 183.396958 0 0 1-46.543582 36.901087l-183.1868 101.884909c-9.621891 5.356942-20.294567 8.035412-30.987847 8.035412-9.312837 0-18.60507-2.039759-27.258592-6.139879-0.350262-0.144225-0.700523-0.329658-1.050785-0.494487a63.09035 63.09035 0 0 1-22.849416-19.140764c-12.032515-16.194447-16.050221-37.725231-9.333441-57.999196l14.443139-43.556056 24.353481-127.88668a209.23802 209.23802 0 0 1 44.812877-94.817867l51.550262-61.810865a141.621054 141.621054 0 0 1 105.943823-50.932153l78.582213-1.607083 17.6367-0.350261 33.270728 58.460716z" fill="#FEA95C" p-id="645"></path><path d="M463.952354 535.978495l-43.415952 0.883895 29.201513 96.979187c7.788169 25.867847 9.941247 53.085231 6.457176 79.876121-6.576676 50.577771-16.346913 105.851107-52.040628 140.17468-25.002495 34.801577-192.987944 114.681819-229.724201 138.790117a63.819718 63.819718 0 0 1-9.162431 4.15575 63.648708 63.648708 0 0 0 52.842109-4.15781l183.1868-101.88491a183.396958 183.396958 0 0 0 46.543582-36.901086c12.40338-13.680805 22.622777-29.051107 30.349135-45.595815s13.000885-34.243219 15.514527-52.539236l11.455614-82.929577-7.936516-78.386479z" fill="#FE9738" p-id="646"></path><path d="M1024 680.414004c0 4.800644-0.824145 9.56008-2.431227 14.072274-2.472435 7.025835-6.861006 13.433561-13.021489 18.440241-2.328209 1.895533-4.800644 3.502616-7.417304 4.841851a42.134406 42.134406 0 0 1-18.996539 4.532797c-5.583581 0-11.187767-1.112596-16.482898-3.378994a182.162801 182.162801 0 0 0-59.544467-14.298913c-27.485231-1.813119-70.464386-3.090543-103.14173-3.852878a184.950471 184.950471 0 0 1-85.896499-23.426318l-139.836781-78.10833-113.278712-63.253118 83.609497-55.01167 28.597827-18.811107 215.204829-25.218833 114.80338 76.933924a181.567356 181.567356 0 0 1 51.055775 51.694486l59.977143 91.995172c4.594608 7.025835 6.799195 14.978833 6.799195 22.849416z" fill="#FEA95C" p-id="647"></path><path d="M577.231066 599.235734l-113.278712-63.253118 83.609497-55.01167-59.152998 53.693038zM1017.202865 657.568708l-59.981263-92.003412a181.616805 181.616805 0 0 0-51.043413-51.690366l-114.805441-76.925683-37.181295 4.355606 108.302937 72.570077c42.624773 24.188652 83.199485 105.053746 111.024676 143.693778 11.702857 17.949875 7.9633 41.837714-8.665883 55.355751a43.68998 43.68998 0 0 1-5.255984 3.554125c2.029457 0.784998 4.054793 1.584419 6.057465 2.443589a41.866559 41.866559 0 0 0 42.882318-5.999775c16.629183-13.515976 20.36874-37.403815 8.665883-55.35369z" fill="#FE9738" p-id="648"></path><path d="M952.855694 56.144869l-19.903098 241.392032a146.137368 146.137368 0 0 1-103.327163 127.845473l-331.182616 100.174809-34.490463 10.425433 14.917022-34.387445 84.289417-194.374567a251.477505 251.477505 0 0 1 107.839356-119.377385L751.002012 142.989135c22.663984-12.691831 42.814326-29.421972 59.441449-49.386881l59.935935-71.90664a41.845956 41.845956 0 0 1 44.977707-13.042093c1.895533 0.597505 3.749859 1.339235 5.583581 2.245795l8.59171 4.203139c4.78004 2.328209 8.983179 5.521771 12.423984 9.292233 7.767565 8.447485 11.88829 19.882495 10.899316 31.750181z" fill="#FFD15B" p-id="649"></path><path d="M929.522093 15.094213l-8.58965-4.201078a41.866559 41.866559 0 0 0-39.779413 1.617384c17.148394 7.798471 30.03596 23.881658 28.016805 43.63435l-19.905159 241.385851a146.108523 146.108523 0 0 1-42.074656 91.082431c-22.237489 35.864724-264.284716 98.326664-376.104692 130.940137l-7.124732 16.431388 365.666897-110.604362a146.122946 146.122946 0 0 0 103.318921-127.849594l19.905159-241.385851a41.862439 41.862439 0 0 0-23.32948-41.050656z" fill="#FFC344" p-id="650"></path><path d="M615.82165 419.015855l-117.378833 106.541328-34.490463 10.425433 14.917022-34.387445 116.183823-105.449336a15.450656 15.450656 0 0 1 21.839839 1.050785 15.444475 15.444475 0 0 1-1.071388 21.819235z" fill="#FFC344" p-id="651"></path><path d="M470.318873 557.121932l-111.712837 212.979637a196.222712 196.222712 0 0 1-29.854648 42.258029l-168.887887 182.21843c-0.350262-0.144225-0.700523-0.329658-1.050785-0.494487a63.09035 63.09035 0 0 1-22.849416-19.140764l170.124104-183.598874c9.910342-10.69328 18.378431-22.663984 25.157023-35.582454l115.071227-219.428572 17.6367-0.350261z" fill="#FE9738" p-id="652"></path><path d="M864.94004 949.229457a41.475091 41.475091 0 0 1-16.709537 9.518873l-12.279759 3.626237-9.704305 2.863904a41.895404 41.895404 0 0 1-28.247566-1.668894l-170.55678-72.730784a151.036909 151.036909 0 0 1-85.360805-95.394769l-70.752837-234.984306-7.376097-24.477102 33.913561 5.562978 159.760483 26.166599a198.412877 198.412877 0 0 1 109.446439 56.742374 198.25629 198.25629 0 0 1 48.315493 81.322495l61.069135 200.638069c4.821247 15.823581-0.185433 32.265272-11.517425 42.814326z" fill="#FFD15B" p-id="653"></path><path d="M876.459525 906.404829l-61.067074-200.638068a198.454085 198.454085 0 0 0-157.766053-138.054568l-193.663742-31.727517 2.422986 8.049835c121.604636 17.962237 264.373312 21.835718 305.32301 161.73431 0.00206-0.00206 61.069135 200.636008 61.069135 200.636008 6.776531 22.264274-5.902938 45.779187-28.229022 52.351742-3.323364 0.892137-6.867187 2.008853-10.526391 3.12557l3.972379 1.695678a41.87068 41.87068 0 0 0 28.247565 1.65241l21.986125-6.473658c22.326085-6.572555 35.005553-30.089529 28.231082-52.351742z" fill="#FFC344" p-id="654"></path><path d="M585.884588 624.660604a15.425932 15.425932 0 0 1-12.506399 6.345915c-3.152354 0-6.325312-0.947767-9.065593-2.946318l-92.984145-67.600483-7.376097-24.477102 33.913561 5.562978 84.619075 61.522414c6.902213 5.00668 8.426881 14.690382 3.399598 21.592596z" fill="#FFC344" p-id="655"></path><path d="M463.952354 535.982616l-121.540764 73.204668a178.895066 178.895066 0 0 1-92.38664 25.672112c-18.337223 0-36.447807-2.822696-53.754849-8.262052a178.950696 178.950696 0 0 1-48.789377-24.003219l-129.59678-90.532314A41.866559 41.866559 0 0 1 0 477.736177v-35.149779c0-16.89497 10.136982-32.121046 25.692716-38.63179l137.261328-57.442898a154.181022 154.181022 0 0 1 95.765634-7.62334 154.05328 154.05328 0 0 1 81.549135 50.437666z" fill="#FFD15B" p-id="656"></path><path d="M340.270873 389.321915a154.11303 154.11303 0 0 0-81.547074-50.431484 154.065642 154.065642 0 0 0-56.078938-3.026672c88.558487 15.885392 146.065256 120.553851 206.90363 188.570527a12.928773 12.928773 0 0 1-2.925714 19.692941c-59.064402 35.901811-117.912467 79.379573-180.714367 89.073578a178.839437 178.839437 0 0 0 24.12066 1.664772 179.051654 179.051654 0 0 0 92.390761-25.676233l121.542825-73.206728z" fill="#FFC344" p-id="657"></path><path d="M1021.568773 694.486278c-2.472435 7.025835-6.861006 13.433561-13.021489 18.440241-2.328209 1.895533-4.800644 3.502616-7.417304 4.841851l-178.262535-137.879436c-22.767002-17.595493-48.521529-29.772233-76.542455-36.221167-8.323863-1.916137-13.515976-10.219396-11.599839-18.522656a15.444475 15.444475 0 0 1 18.522656-11.599839c32.430101 7.458511 62.202334 21.551388 88.513159 41.907766zM393.343742 262.057465c-1.298028 0.329658-2.596056 0.494487-3.87348 0.494487-6.88161 0-13.145111-4.635815-14.95823-11.599839-1.87493-7.273078-4.058913-14.566761-6.510744-21.654407l-66.055212-191.242817a42.464064 42.464064 0 0 1 6.88161-3.337786l21.839839-8.179638c0.041207 0.123622 0.103018 0.267847 0.144226 0.391469l66.405472 192.293601c2.719678 7.84998 5.150905 15.9266 7.231872 24.00322a15.477441 15.477441 0 0 1-11.105353 18.83171z" fill="#FE9738" p-id="658"></path><path d="M329.060443 495.33167a15.444475 15.444475 0 0 1-14.772797 11.002334c-1.483461 0-2.987525-0.22664-4.470986-0.659316l-68.61006-20.686036a172.744885 172.744885 0 0 0-49.901972-7.355493H0v-30.905433h191.304628c19.944306 0 39.723783 2.905111 58.82334 8.674125l68.61006 20.665433a15.442414 15.442414 0 0 1 10.322415 19.264386zM864.94004 949.229457a41.475091 41.475091 0 0 1-16.709537 9.518873l-12.279759 3.626237c-16.235654-20.541811-34.634688-43.782696-44.668651-56.659959-47.61497-61.130946-101.575855-130.400322-107.138833-136.334165-6.036861-6.036861-5.97505-15.761771 0.06181-21.798632s15.864789-5.97505 21.90165 0.061811c5.00668 4.986076 38.858431 48.294889 109.570061 139.074446 10.98173 14.113481 32.059235 40.712757 49.263259 62.511389zM941.956378 24.394688l-121.046277 199.05159c-18.54326 30.472757-41.557505 57.834366-68.445232 81.281287l-16.977384 14.814004a15.401207 15.401207 0 0 1-10.157586 3.81167 15.390905 15.390905 0 0 1-11.641046-5.29513c-5.604185-6.42833-4.944869-16.194447 1.483461-21.798632l16.977384-14.814004a316.424241 316.424241 0 0 0 62.34656-74.049417L915.357103 8.653521c1.895533 0.597505 3.749859 1.339235 5.583581 2.245795l8.59171 4.203139c4.78004 2.328209 8.983179 5.521771 12.423984 9.292233z" fill="#FFC344" p-id="659"></path><path d="M626.906398 666.16866m-15.858607 0a15.858608 15.858608 0 1 0 31.717215 0 15.858608 15.858608 0 1 0-31.717215 0Z" fill="#FFC344" p-id="660"></path><path d="M661.087807 360.664338m-15.858608 0a15.858608 15.858608 0 1 0 31.717215 0 15.858608 15.858608 0 1 0-31.717215 0Z" fill="#FFC344" p-id="661"></path><path d="M429.620539 334.56161m-15.858607 0a15.858608 15.858608 0 1 0 31.717215 0 15.858608 15.858608 0 1 0-31.717215 0Z" fill="#FE9738" p-id="662"></path></svg>