<svg class="icon" style="width: 1em;height: 1em;vertical-align: middle;fill: currentColor;overflow: hidden;" viewBox="0 0 1024 1024" version="1.1" xmlns="http://www.w3.org/2000/svg" p-id="714"><path d="M473.946254 353.741457l-2.843291-61.242023a87.699055 87.699055 0 0 1 6.611682-37.704516l34.37292-82.793347a173.832239 173.832239 0 0 0 13.215124-71.597372l-2.458005-86.316556c-0.362623-12.716517-16.695065-17.665493-24.054657-7.289539l-108.553978 153.049427-17.510966 131.508405 30.90328 88.980596h41.66658z" fill="#FEA95C" p-id="715"></path><path d="M525.300628 100.404199l-2.458004-86.316556c-0.362623-12.716517-16.695065-17.665493-24.054657-7.289539l-15.382618 21.687307 2.047994 71.918788a173.832239 173.832239 0 0 1-13.215124 71.597372l-34.37292 82.793347a87.709357 87.709357 0 0 0-6.609622 37.704516l1.798691 38.742935a31.035143 31.035143 0 0 1-20.02048 30.464424l-14.022783 5.338383 4.615198 13.289296h41.66658l28.653371-26.595076-2.843291-61.242023a87.72996 87.72996 0 0 1 6.609622-37.704515l34.37292-82.793347a173.809575 173.809575 0 0 0 13.215123-71.595312z" fill="#FE9738" p-id="716"></path><path d="M390.238109 159.845471l-17.513026 131.512526-17.265784 5.830807-49.057077 16.524056-38.384433 3.06993-19.985454-126.134997 17.059748-153.475921 2.822688-25.362983c1.380439-12.423947 17.616044-16.215002 24.353408-5.665979z" fill="#FEA95C" p-id="717"></path><path d="M390.238109 159.845471l-17.513026 131.512526-17.265784 5.830807-6.716761-110.311462a107.064341 107.064341 0 0 0-15.905948-50.025445l-58.081437-93.663785c-2.369409-3.729244-5.975033-5.645376-9.66307-6.01624l2.822688-25.362983c1.380439-12.423947 17.616044-16.215002 24.353408-5.665979z" fill="#FE9738" p-id="718"></path><path d="M268.017789 316.760126v0.020604l-32.120951 56.30953-8.035388-2.163374a138.878299 138.878299 0 0 1-81.693117-60.82171l-81.857946-131.821579c-1.21561-1.957338-1.833717-4.017694-1.998545-6.057447-0.597503-8.117803 6.65495-15.699913 15.74112-13.969214l169.979373 32.388797z" fill="#FEA95C" p-id="719"></path><path d="M268.017789 316.760126l-52.683304-111.011983c-4.491576-9.498241-13.248089-16.276813-23.549869-18.295962L76.71167 165.035508c-6.407707-1.21561-11.908858 2.204581-14.381285 7.190642h-0.020603c-0.597503-8.117803 6.65495-15.699913 15.74112-13.969214l169.979373 32.388797z" fill="#FE9738" p-id="720"></path><path d="M403.630423 380.342714l-13.392314 26.236573-41.106163-2.810325-34.523326-34.686094-8.208458-55.370008 45.041443-82.661485 38.796504-71.205904z" fill="#FFD15B" p-id="721"></path><path d="M403.630423 380.342714l-13.392314 26.236573-41.104103-2.810325-8.787418-8.828626 1.493758-6.562234a28.923278 28.923278 0 0 0 17.434733-28.321654l-7.833474-129.007133 38.796504-71.205905z" fill="#FFC344" p-id="722"></path><path d="M349.138127 403.771022l-113.237168-30.674581 12.121075-182.444527z" fill="#FFD15B" p-id="723"></path><path d="M303.416766 391.384162l45.721361 12.38686-101.116093-213.121168-4.895406 73.66803z" fill="#FFC344" p-id="724"></path><path d="M622.584459 242.688266c-39.556776 0-63.209663-13.050295-64.507687-13.783782a15.45267 15.45267 0 0 1 15.133315-26.945336c1.524663 0.826203 33.524053 17.690217 86.623549 5.422857a15.45267 15.45267 0 1 1 6.957823 30.114164c-16.313899 3.76427-31.13198 5.192097-44.207 5.192097z" fill="#8AC9FE" p-id="725"></path><path d="M549.470665 406.579287a15.372316 15.372316 0 0 1-7.724275-2.080959 15.45267 15.45267 0 0 1-5.637134-21.114529l63.092223-109.087611c26.04084-45.012598 66.969813-80.444541 115.252196-99.770681l90.612398-36.268447a15.45267 15.45267 0 0 1 11.484425 28.692518l-90.612399 36.268448c-41.884978 16.765117-77.393154 47.505629-99.982897 86.553496l-63.092223 109.087611a15.444429 15.444429 0 0 1-13.392314 7.720154z" fill="#60B7FF" p-id="726"></path><path d="M565.698029 363.07693l-12.504301 66.209541-41.600648 53.107737-41.95091 22.435217-45.472057-7.683067-75.038167-93.377396 54.498477-23.426248 70.319952-26.599197 53.87625 5.480547 2.72173 0.267846z" fill="#FFEAD9" p-id="727"></path><path d="M565.698029 363.07693l-50.80838 112.042161-3.296569 7.275117-24.827291 13.276935-17.123619-6.18931 58.184455-130.257769z" fill="#FEDBA6" p-id="728"></path><path d="M511.59514 482.394208l54.094648-119.309037 41.106163-29.706213a407.822753 407.822753 0 0 1 137.234135-64.41085l122.665357-31.566715c10.790085-2.77736 18.384557 10.421281 10.559324 18.353651l-76.44539 77.500293a138.07476 138.07476 0 0 1-54.113191 33.851649l-61.155487 20.65919a138.07682 138.07682 0 0 0-73.513504 58.623311l-13.031752 21.246391-44.639674 20.175006z" fill="#FEA95C" p-id="729"></path><path d="M866.695443 237.403453l-26.786689 6.893951c1.366016 3.669494 0.863289 8.049811-2.501272 11.461761l-76.44539 77.500292c-65.478115 61.649973-141.507313 32.240451-193.766184 119.587185-5.73191 9.578595-15.495938 16.050174-26.50236 17.908615l-25.795657 4.355593-3.302751 7.285419 42.758569 5.418736 44.639674-20.175006 13.031752-21.246392a138.083001 138.083001 0 0 1 73.515564-58.62537l61.153427-20.65713a138.060337 138.060337 0 0 0 54.113191-33.85165l76.44539-77.500292c7.827293-7.934431 0.234881-21.133072-10.557264-18.355712z" fill="#FE9738" p-id="730"></path><path d="M291.134984 534.232766l-2.472428 158.173533-67.559074 320.776832c-8.715306 10.404798-20.624164 10.816869-20.624164 10.816869h-76.130156c-11.826444 0-20.912614-10.466609-19.243725-22.169431l30.410855-213.82375a321.794647 321.794647 0 0 1 96.383456-196.599173l42.855405-41.371949z" fill="#6FD7A3" p-id="731"></path><path d="M291.134984 534.232766l-2.472428 158.173533-67.559074 320.776832c-8.715306 10.404798-20.624164 10.816869-20.624164 10.816869h-38.672883c6.284086-0.86535 12.011876-3.605623 16.565263-7.643921s7.932371-9.395224 9.560052-15.535084l27.25851-103.141424v-0.020603l59.564893-225.382347v-122.240924z" fill="#3EC3A4" p-id="732"></path><path d="M657.614633 543.891715l-343.006013 128.380785-13.571565-40.203727 13.571565-46.491934 109.553251-88.42224 334.109396-56.406367z" fill="#8AC9FE" p-id="733"></path><path d="M955.669858 433.953178l-156.47992 106.334975a333.843609 333.843609 0 0 1-115.132696 49.739055l-369.448622 82.243232 302.093523-141.95235 141.569124-89.571919 187.407924-31.632646c14.52757-2.447703 22.155008 16.575564 9.990667 24.839653z" fill="#6FD7A3" p-id="734"></path><path d="M945.681252 409.117646l-27.116346 4.576051c4.732638 5.698945 4.874802 15.085927-2.738213 20.259481l-156.479921 106.334975a333.843609 333.843609 0 0 1-115.132695 49.739055l-293.732598 65.387459-35.870799 16.855773 369.448623-82.243232a333.825066 333.825066 0 0 0 115.132695-49.739055l156.47992-106.334975c12.162282-8.264088 4.534844-27.287355-9.990666-24.835532z" fill="#3EC3A4" p-id="735"></path><path d="M314.600379 544.20489v128.071731l-86.287711 326.504621c-1.648285 6.201672-4.22373 10.87868-7.211246 14.401889l-5.913222-115.50356v-0.020603l-3.234759-63.273534a354.467773 354.467773 0 0 1 20.747785-138.888601l42.051867-116.059855v-0.020604l16.37983-45.183608c8.799781-8.490727 23.467455-2.247848 23.467456 9.972124z" fill="#BBF49B" p-id="736"></path><path d="M314.600379 544.20489v128.071731l-86.287711 326.504621c-1.648285 6.201672-4.22373 10.87868-7.211246 14.401889l-5.913222-115.50356v-0.020603l54.966178-207.97852a138.579547 138.579547 0 0 0 4.598715-35.407218V579.414314l16.37983-45.183608c8.799781-8.488667 23.467455-2.245788 23.467456 9.974184z" fill="#9BE69D" p-id="737"></path></svg>