<svg class="icon" style="width: 1em;height: 1em;vertical-align: middle;fill: currentColor;overflow: hidden;" viewBox="0 0 1024 1024" version="1.1" xmlns="http://www.w3.org/2000/svg" p-id="601"><path d="M512 700.523139l-56.247887 112.990261-97.232612 70.429361-96.88235 11.000273L175.254406 821.899074a123.794801 123.794801 0 0 1 5.23332-55.052877l8.859558-26.846519a124.24396 124.24396 0 0 1 62.593803-72.19509l122.364909-60.904306 29.421972-14.649175z" fill="#B2529F" p-id="602"></path><path d="M512 700.523139l-56.247887 112.990261-32.397135 23.465465-21.707976-1.522607c22.107686-39.146881 39.99163-84.413038 55.856419-115.977787a30.200789 30.200789 0 0 0-5.645393-35.005553l-77.552032-77.572636 29.421972-14.649175z" fill="#9A4588" p-id="603"></path><path d="M848.539557 823.341328l-56.676442 68.119694-142.708926-9.860893-77.650929-61.534777L512 700.523139l108.272032-108.272032 151.786881 75.553481a124.314012 124.314012 0 0 1 62.593803 72.19509l8.859558 26.846519c6.139879 18.54326 7.705755 37.869457 5.027283 56.495131z" fill="#B2529F" p-id="604"></path><path d="M343.091509 776.612314a15.399147 15.399147 0 0 1-10.926101-4.526616 15.452716 15.452716 0 0 1 0-21.852201l103.862858-103.862857a15.452716 15.452716 0 0 1 21.852201 0 15.452716 15.452716 0 0 1 0 21.852201l-103.862857 103.862857a15.399147 15.399147 0 0 1-10.926101 4.526616zM848.539557 823.341328l-26.034736 31.292781-27.102004 0.828265a124.161545 124.161545 0 0 0 4.058913-88.616177l-8.880161-26.846519a124.281046 124.281046 0 0 0-62.573199-72.19509l-122.385513-60.904306 14.649175-14.649175 151.786881 75.553481a124.314012 124.314012 0 0 1 62.593803 72.19509l8.859558 26.846519c6.139879 18.54326 7.705755 37.869457 5.027283 56.495131zM680.908491 776.612314a15.399147 15.399147 0 0 1-10.926101-4.526616l-109.149746-109.149746a15.452716 15.452716 0 0 1 0-21.852201 15.452716 15.452716 0 0 1 21.852201 0l109.149747 109.149746a15.452716 15.452716 0 0 1 0 21.852201 15.399147 15.399147 0 0 1-10.926101 4.526616z" fill="#9A4588" p-id="605"></path><path d="M455.752113 813.5134v0.020604l-19.305594 38.79662a124.281046 124.281046 0 0 1-72.19509 62.573199l-26.84652 8.880161a124.151243 124.151243 0 0 1-38.982052 6.284105c-7.788169 0-15.555734-0.74173-23.158471-2.183984a124.046165 124.046165 0 0 1-64.695372-34.202012 124.033803 124.033803 0 0 1-35.314608-71.783019c43.988732 40.074044 106.335292 53.569416 163.201288 34.75831l35.72668-11.805875c7.808773-2.575453 17.204024-5.727807 27.464628-9.395251 16.812555-5.995654 35.932716-13.371751 54.105111-21.942858z" fill="#FFCEEC" p-id="606"></path><path d="M320.178221 914.895581c-14.362785 6.341795-29.570318 10.788056-44.911774 12.96998a124.07501 124.07501 0 0 0 62.140523-4.089819l26.836217-8.873979a124.204813 124.204813 0 0 0 72.195091-62.57732l19.320016-38.813103c-18.180636 8.581408-37.302857 15.963686-54.117473 21.95728-22.146833 39.231356-48.546254 72.345497-81.4626 79.426961z" fill="#FFBEE6" p-id="607"></path><path d="M848.539557 823.341328a124.004958 124.004958 0 0 1-35.129175 70.340765 124.210994 124.210994 0 0 1-109.899718 34.408048c-5.6866-1.030181-11.331992-2.472435-16.915573-4.306157l-26.84652-8.880161a124.281046 124.281046 0 0 1-72.19509-62.573199l-16.050221-32.265272c27.959115 10.899316 57.999195 18.872918 78.17014 25.548491l35.850302 11.867686a165.710809 165.710809 0 0 0 109.879115-2.019155 165.253408 165.253408 0 0 0 53.13674-32.121046z" fill="#FFCEEC" p-id="608"></path><path d="M795.656241 855.361416c-5.816402 13.969256-14.457561 26.974262-26.304643 38.314495-18.790503 19.622889-42.15707 30.454213-66.914383 34.199952 40.018414 7.598616 81.676877-4.89336 110.973167-34.19171a123.992596 123.992596 0 0 0 23.446922-32.636137 124.285167 124.285167 0 0 0 11.702857-37.725231 165.89006 165.89006 0 0 1-52.90392 32.038631z" fill="#FFBEE6" p-id="609"></path><path d="M448.231791 529.389457l-37.745835 106.273481c-56.783581 0-101.184386 31.420523-129.514366 59.462052-24.930382 24.662535-60.69827 34.717103-94.797264 27.402817-1.545272-0.309054-3.06994-0.67992-4.594608-1.071388l-19.223179-5.027284c-69.537223-30.905433-119.418592-105.634769-119.418591-178.612797v-28.432998c0-72.64837 56.845392-153.764829 118.553239-178.035895h0.020604l20.129738-5.089095c1.854326-0.473883 3.708652-0.885956 5.562978-1.236217 33.625111-6.593159 68.630664 3.646841 92.984145 28.082736 7.252475 7.252475 15.576338 14.752193 24.971589 21.860443 26.846519 20.356378 62.305352 37.60161 105.325715 37.60161zM613.514044 635.650575V412.538076c58.067187 0 102.336129-31.414342 130.291123-59.462052 25.694777-25.779252 63.273722-35.763767 98.559485-26.834157l46.222165 11.694616c79.632998 20.148282 135.413183 91.799437 135.413183 173.941956v23.562301c0 81.652153-55.131171 153.006616-134.137819 173.614359l-47.450141 12.376595c-35.448531 9.246905-73.338592-0.548056-99.373328-26.321127-28.334101-28.04771-72.741087-59.459992-129.524668-59.459992z" fill="#C365AF" p-id="610"></path><path d="M990.842592 509.38334v28.432998c0 72.442334-56.865996 153.20235-125.840741 177.726841l-22.581569 5.892636c-35.458833 9.251026-73.348893-0.556298-99.391872-26.331429-28.32998-28.041529-72.730785-59.462052-129.514366-59.462052l-35.380539-103.945272 35.380539-119.150744c58.061006 0 102.338189-31.420523 130.297304-59.462052 25.692716-25.795734 63.273722-35.767887 98.547123-26.84652l23.343903 5.91324c67.079211 23.473706 125.140217 105.057867 125.140218 177.232354z" fill="#C365AF" p-id="611"></path><path d="M1024 511.876378v23.570544c0 81.652153-55.135292 153.002495-134.129577 173.606116l-24.868572 6.490141c56.927807-39.600161 92.922334-105.284507 92.922334-177.726841v-28.432998c0-72.174487-35.72668-137.590986-92.221811-177.232354l22.890624 5.789618c79.632998 20.150342 135.407002 91.789135 135.407002 173.935774z" fill="#FFCEEC" p-id="612"></path><path d="M807.064467 539.423421h-193.70701a15.452716 15.452716 0 0 1 0-30.905433h193.70701a15.452716 15.452716 0 0 1 0 30.905433z" fill="#B2529F" p-id="613"></path><path d="M888.586817 337.938543l-22.886503-5.791678a216.791308 216.791308 0 0 1 29.862889 25.274463c53.557054 31.653344 88.136113 89.796765 88.136113 154.457111v23.562301c0 64.736579-34.673835 122.970656-88.408081 154.603397a216.498736 216.498736 0 0 1-30.295565 25.496982l24.866511-6.48602C968.868829 688.447356 1024 617.092893 1024 535.44074v-23.562301c0-82.140459-55.780185-153.791614-135.413183-173.939896z" fill="#FFBEE6" p-id="614"></path><path d="M448.231791 529.389457l-37.745835 106.273481c-56.783581 0-101.184386 31.420523-129.514366 59.462052-24.930382 24.662535-60.69827 34.717103-94.797264 27.402817-0.020604-0.020604-0.041207-0.020604-0.041207-0.041207 18.893521-4.079517 36.592032-13.330543 50.767324-27.36161 24.51831-24.271066 61.089738-51.076378 107.303662-57.834366 12.712435-1.854326 22.210704-12.609416 22.210704-25.445473v-54.228732l-42.917344-127.989699a59.874125 59.874125 0 0 0-30.163702-34.593481c-23.3233-11.538028-42.525875-27.196781-57.195654-41.92837-14.134085-14.175292-31.853199-23.54994-50.808532-27.65006 0.618109-0.123622 1.256821-0.267847 1.87493-0.432676 33.625111-6.593159 68.630664 3.646841 92.984145 28.082736 7.252475 7.252475 15.576338 14.752193 24.971589 21.860443 26.846519 20.356378 62.305352 37.60161 105.325715 37.60161z" fill="#B2529F" p-id="615"></path><path d="M410.490076 539.423421H216.935533a15.452716 15.452716 0 0 1 0-30.905433h193.554543a15.452716 15.452716 0 0 1 0 30.905433z" fill="#B2529F" p-id="616"></path><path d="M162.356539 716.429135l-28.226962-7.355493C55.135292 688.47002 0 617.119678 0 535.467525v-23.570543c0-82.14664 55.774004-153.785433 135.407002-173.935775l26.084185-6.613762c-57.133843 39.579557-93.35501 105.387525-93.35501 178.035895v28.432998c0 72.978028 36.530221 139.115654 94.220362 178.612797z" fill="#FFCEEC" p-id="617"></path><path d="M492.879839 93.952515c-0.020604 0-0.041207 0-0.061811-0.020604h0.309054c-0.082414 0.020604-0.164829 0.020604-0.247243 0.020604zM690.34495 328.483541L613.514044 568.865996l-101.514044 26.156298-101.514044-26.156298-76.830906-240.382455a124.167726 124.167726 0 0 1-1.854326-72.916217l1.442254-2.884507c13.886841-27.567646 37.457384-70.402575 37.457384-70.402576l108.478069-66.055211h65.643138l57.154447 37.704628v0.020604l55.341328 36.509617s16.276861 28.123944 33.419075 62.222938l1.462857 2.884507a124.167726 124.167726 0 0 1-1.854326 72.916217z" fill="#D691C6" p-id="618"></path><path d="M512 531.697062a15.452716 15.452716 0 0 1-15.452716-15.452716v-171.17901a15.452716 15.452716 0 0 1 30.905432 0v171.17901a15.452716 15.452716 0 0 1-15.452716 15.452716z" fill="#CD7CBB" p-id="619"></path><path d="M493.127082 93.931911c-0.082414 0.020604-0.164829 0.020604-0.247243 0.020604-0.020604 0-0.041207 0-0.061811-0.020604z" fill="#D691C6" p-id="620"></path><path d="M690.34495 328.483541L613.514044 568.865996h-30.530446l-13.540701-11.249577 76.830906-229.132878a124.1327 124.1327 0 0 0-6.799195-95.29175c-8.529899-18.254809-17.368853-37.684024-27.58825-56.062455l-9.910342-23.179074 55.341328 36.509617s16.276861 28.123944 33.419075 62.222938l1.462857 2.884507a124.167726 124.167726 0 0 1-1.854326 72.916217z" fill="#CD7CBB" p-id="621"></path><path d="M692.199276 255.567324l-1.462857-2.884507c-17.142213-34.098994-45.266157-60.409819-78.829457-75.553481h-0.020604a163.197167 163.197167 0 0 0-67.064789-14.401932h-65.643138c-61.728451 0-118.182374 34.799517-145.935453 89.955413l-1.442254 2.884507c2.122173-7.685151 5.027284-15.184869 8.653521-22.396137l35.623662-70.835251c21.098109-41.92837 64.036056-68.404024 110.971107-68.404025h5.769014c0.020604 0.020604 0.041207 0.020604 0.061811 0.020604 0.082414 0 0.164829 0 0.247243-0.020604h43.823904c46.93505 0 89.872998 26.475654 110.971107 68.404025l35.623662 70.835251c3.626237 7.211268 6.531348 14.710986 8.653521 22.396137z" fill="#FFCEEC" p-id="622"></path><path d="M492.824209 93.940153l0.063871 0.004121 0.243123-0.004121z" fill="#D691C6" p-id="623"></path><path d="M692.199276 255.567324l-1.462857-2.884507c-17.142213-34.098994-45.266157-60.409819-78.829457-75.553481h-0.020604c-24.29167-43.741489-56.43332-81.507928-111.156539-83.197425h36.221167c46.93505 0 89.872998 26.475654 110.971107 68.404025l35.623662 70.835251c3.626237 7.211268 6.531348 14.710986 8.653521 22.396137z" fill="#FFBEE6" p-id="624"></path><path d="M493.127082 93.931911c-0.082414 0.020604-0.164829 0.020604-0.247243 0.020604-0.020604 0-0.041207 0-0.061811-0.020604z" fill="#FFCEEC" p-id="625"></path><path d="M613.507863 567.701891v67.963107s-46.951533 23.615871-88.432805 64.485215c-7.219509 7.114431-18.844072 7.079404-25.993529-0.105078-41.969577-42.109682-88.589392-64.380137-88.589392-64.380137v-67.963107a35.747284 35.747284 0 0 1 24.510068-33.934165l43.8033-14.504949h66.39105l43.8033 14.504949a35.749344 35.749344 0 0 1 24.508008 33.934165z" fill="#8379C1" p-id="626"></path><path d="M588.997795 533.767726l-43.8033-14.504949h-44.064966l43.8033 14.504949a35.745223 35.745223 0 0 1 24.510068 33.934165v43.556057c0 14.657416-7.639823 28.222841-20.115316 35.916233-15.341457 9.461183-37.461505 24.52037-59.146816 44.299847a316.13167 316.13167 0 0 1 8.900764 8.573167c7.149457 7.184483 18.77402 7.219509 25.993529 0.105079 41.481272-40.869344 88.432805-64.485215 88.432805-64.485216v-67.963106a35.749344 35.749344 0 0 0-24.510068-33.936226z" fill="#6E61B6" p-id="627"></path><path d="M545.194495 519.264837v68.294825c0 18.337223-14.857272 33.213038-33.194495 33.213038s-33.194495-14.875815-33.194495-33.213038v-68.294825l18.668942-6.187268a46.123268 46.123268 0 0 1 29.053167 0z" fill="#6FD7A3" p-id="628"></path><path d="M526.525553 513.075509a46.123268 46.123268 0 0 0-29.053167 0l-2.070664 0.686101 5.826705 1.930559a15.714382 15.714382 0 0 1 10.771573 14.917022v56.948411c0 12.283879-6.683815 22.987461-16.598278 28.73381a32.980217 32.980217 0 0 0 19.264387 4.374149c17.414181-1.382503 30.528386-16.546769 30.528386-34.014519v-67.386205z" fill="#3EC3A4" p-id="629"></path></svg>