<svg class="icon" style="width: 1em;height: 1em;vertical-align: middle;fill: currentColor;overflow: hidden;" viewBox="0 0 1024 1024" version="1.1" xmlns="http://www.w3.org/2000/svg" p-id="569"><path d="M166.679179 841.04808l201.056322 12.048998a233.741907 233.741907 0 0 1 99.550519 29.005779l118.977674 66.110841c8.344467 4.635815 3.92499 17.387396-5.499106 15.864789l-172.409047-27.847855-337.57798-41.934552 43.626109-38.994414z" fill="#BBF49B" p-id="570"></path><path d="M586.263694 948.213698l-118.977674-66.110841a233.762511 233.762511 0 0 0-99.550519-29.005779l-201.056322-12.048998-7.648064 2.085087 166.087855 9.963911a233.741907 233.741907 0 0 1 99.550519 29.005779l118.977674 66.110841c4.26907 2.371477 5.181811 6.863066 3.807549 10.485183l33.309876 5.379606c9.424097 1.522608 13.843573-11.228974 5.499106-15.864789z" fill="#9BE69D" p-id="571"></path><path d="M159.016692 772.141328l88.764523-117.401497a176.540072 176.540072 0 0 0 34.002157-81.907638l28.179574-200.555654c1.357779-9.663099-11.954221-13.65608-16.140878-4.841851L81.114398 815.396571l38.703904-9.209818z" fill="#BBF49B" p-id="572"></path><path d="M293.822068 367.436748l-52.036507 109.588604c3.960016 0.890076 7.33901 4.384451 6.622004 9.485908l-9.240724 86.322994a176.550374 176.550374 0 0 1-34.002157 81.907637l-81.12264 107.293361a59.950358 59.950358 0 0 1-18.72045 16.258317l-8.948153 4.969594-15.259043 32.133408 38.703904-9.211879L159.018753 772.141328l88.764523-117.401497a176.540072 176.540072 0 0 0 34.002157-81.907638l28.179573-200.555654c1.355718-9.661038-11.956282-13.65402-16.142938-4.839791z" fill="#9BE69D" p-id="573"></path><path d="M467.62392 626.465481l101.134937 19.40037c30.676732 5.894696 42.282753 43.700282 20.199791 65.785304a38.905819 38.905819 0 0 1-19.612588 10.596443 38.996475 38.996475 0 0 1-22.235428-1.914077l-126.671067-48.282527 14.770737-28.878036z" fill="#ACA6D6" p-id="574"></path><path d="M568.758857 645.865851l-101.134937-19.40037-7.930334 4.087758 0.871533 2.732041 65.577207 12.580571c30.676732 5.894696 42.282753 43.700282 20.199791 65.785304a38.961449 38.961449 0 0 1-7.186544 5.649513l7.957119 3.032853a38.996475 38.996475 0 0 0 22.235429 1.914077 38.936724 38.936724 0 0 0 19.612587-10.596443c22.080901-22.085022 10.474881-59.890608-20.201851-65.785304zM573.532716 520.566986l101.128757 19.408612c30.678793 5.888515 42.282753 43.685859 20.19567 65.775002a38.938785 38.938785 0 0 1-41.837714 8.682366l-124.270745-49.081948 14.554398-32.207581z" fill="#978ECB" p-id="575"></path><path d="M674.661473 539.975598l-101.128757-19.408612-8.36713 3.479952 1.506124 3.381054 65.373232 12.545545c30.678793 5.888515 42.284813 43.68792 20.19567 65.775002a38.982052 38.982052 0 0 1-7.071163 5.581521l7.85204 3.100845a38.938785 38.938785 0 0 0 41.837714-8.682366c22.085022-22.087082 10.479002-59.884427-20.19773-65.772941zM679.433272 414.666431l101.128756 19.408611c30.678793 5.888515 42.282753 43.685859 20.19567 65.775002a38.938785 38.938785 0 0 1-41.837714 8.682366l-124.270745-49.081947 14.62033-32.660861z" fill="#8379C1" p-id="576"></path><path d="M780.562028 434.072982l-101.128756-19.408612-6.861006 2.758825v4.104242l65.373231 12.545545c30.678793 5.886455 42.282753 43.685859 20.19567 65.775002a38.982052 38.982052 0 0 1-7.071163 5.581521l7.85204 3.100845a38.936724 38.936724 0 0 0 41.837715-8.682366c22.087082-22.087082 10.481062-59.886487-20.197731-65.775002z" fill="#6E61B6" p-id="577"></path><path d="M785.335887 308.763815l101.128757 19.408612c30.678793 5.888515 42.282753 43.68792 20.19567 65.775002a38.938785 38.938785 0 0 1-41.837714 8.682366l-124.270745-49.081948 12.364234-30.309988z" fill="#ACA6D6" p-id="578"></path><path d="M886.464644 328.172427l-101.128757-19.408612-6.863066 3.063758v3.799308l65.373231 12.545546c30.678793 5.888515 42.282753 43.685859 20.19567 65.775002a38.747171 38.747171 0 0 1-7.073223 5.581521l7.85204 3.100845a38.936724 38.936724 0 0 0 41.837715-8.682366c22.089143-22.089143 10.483123-59.888547-20.19361-65.775002zM891.236443 202.86326l101.128756 19.408611c30.678793 5.888515 42.282753 43.68792 20.19567 65.775002a38.938785 38.938785 0 0 1-41.837714 8.682366l-124.270745-49.081947 20.263662-30.860105z" fill="#978ECB" p-id="579"></path><path d="M992.365199 222.269811l-101.128756-19.408612-6.861006 6.861006 65.373231 12.545546c30.678793 5.888515 42.282753 43.68792 20.19567 65.775002a38.982052 38.982052 0 0 1-7.071163 5.581521l7.85204 3.100845a38.938785 38.938785 0 0 0 41.837715-8.682366c22.087082-22.085022 10.481062-59.884427-20.197731-65.772942zM437.480821 566.171042l-47.839549-125.506962a38.928483 38.928483 0 0 1 8.682366-41.848016c22.085022-22.085022 59.890608-10.476942 65.785304 20.199791l19.40037 101.134938-16.78371 36.503436z" fill="#8379C1" p-id="580"></path><path d="M464.108942 419.017915c-5.371364-27.957054-37.243107-40.061682-59.569191-25.276523 8.36301 5.40227 14.795461 14.055791 16.952659 25.276523l16.940298 88.307123a24.635751 24.635751 0 0 1-6.776531 22.062358l-5.933843 5.933843 11.760547 30.851864 29.244781-9.516813 16.78371-36.503437z" fill="#6E61B6" p-id="581"></path><path d="M589.405746 414.244056l-19.408611-101.128756c-5.888515-30.678793-43.68792-42.282753-65.775002-20.19567a38.938785 38.938785 0 0 0-8.682366 41.837714l49.081947 124.270745 29.232419-10.969369z" fill="#ACA6D6" p-id="582"></path><path d="M569.999195 313.1153c-5.365183-27.957054-37.228684-40.061682-59.556829-25.274463 8.358889 5.40227 14.787219 14.055791 16.940298 25.274463l16.946479 88.303002a24.63369 24.63369 0 0 1-6.774471 22.062358l-4.998439 4.998439 12.065481 30.55105 29.232419-10.969368 15.553674-33.816725z" fill="#978ECB" p-id="583"></path><path d="M695.308362 308.343501l-19.408611-101.128757c-5.888515-30.678793-43.685859-42.282753-65.775003-20.19567a38.938785 38.938785 0 0 0-8.682366 41.837715l49.081948 124.270744 28.525714-9.875316z" fill="#8379C1" p-id="584"></path><path d="M675.899751 207.214744c-5.365183-27.959115-37.230744-40.063742-59.556829-25.274462 8.358889 5.40227 14.787219 14.055791 16.940297 25.274462l16.946479 88.300942a24.63369 24.63369 0 0 1-6.774471 22.062358l-4.998438 4.998439 12.065481 30.55105 28.525714-9.875316 16.260378-34.910776z" fill="#6E61B6" p-id="585"></path><path d="M801.208918 202.440885l-19.408612-101.128756c-5.888515-30.678793-43.685859-42.282753-65.775002-20.19567a38.938785 38.938785 0 0 0-8.682366 41.837714l49.081947 124.270745 22.047936-7.233932z" fill="#ACA6D6" p-id="586"></path><path d="M781.802366 101.312129c-5.365183-27.957054-37.228684-40.061682-59.556829-25.272403 8.358889 5.40227 14.787219 14.055791 16.940298 25.272403l16.946479 88.303002a24.63369 24.63369 0 0 1-6.774471 22.062358l-4.998439 4.998439 12.065481 30.55105 22.047936-7.233932 22.736097-37.552161z" fill="#978ECB" p-id="587"></path><path d="M846.45241 247.647292l-45.222889-45.22289 110.017159-129.506124c14.078455-16.573553 39.30759-17.597553 54.686133-2.221071l12.248853 12.248853c15.376483 15.376483 14.352483 40.605618-2.22107 54.686133z" fill="#8379C1" p-id="588"></path><path d="M978.177545 82.94606l-12.248853-12.248853c-14.150567-14.150567-36.624998-14.375147-51.094921-1.409287 0.523332 0.467702 1.063147 0.906559 1.567935 1.409287l12.248853 12.248853c15.376483 15.376483 14.352483 40.605618-2.22107 54.686133l-102.727598 87.26664 22.748459 22.748459L975.956475 137.632193c16.573553-14.080515 17.597553-39.30965 2.22107-54.686133z" fill="#6E61B6" p-id="589"></path><path d="M849.987992 244.113771l-3.539702 3.539702-61.120644 61.120644-44.76961 44.769609h-0.020603l-61.09798 61.120644-44.790214 44.790214-61.120643 61.120643-44.788153 44.788153-61.120644 61.09798-14.090817 14.090817a922.067702 922.067702 0 0 1-33.064692 31.486455h-0.020604a932.334487 932.334487 0 0 1-174.150052 124.798197l-79.604153 44.215372-95.91192 53.231517-49.89373 27.711872C11.513304 927.202125 0 920.425594 0 909.70759v-41.001208a14.057851 14.057851 0 0 1 7.233932-12.29006l73.882527-41.030052 77.898173-43.23464v-0.020604l56.237585-31.210366a870.406181 870.406181 0 0 0 193.060057-145.583131l29.164426-29.164426 46.026431-46.026431 61.120644-61.120644 44.790213-44.790213 61.120644-61.09798v-0.020604l150.70107-150.70107 3.539702-3.539702c12.491976-12.471372 32.724732-12.471372 45.216709 0 12.487855 12.494036 12.487855 32.745336-0.004121 45.237312z" fill="#6FD7A3" p-id="590"></path><path d="M849.987992 198.876459c-12.491976-12.471372-32.724732-12.471372-45.216708 0l-2.684652 2.684652c9.636314 11.393803 12.164378 28.645215-1.627686 42.55472l-109.427896 109.427895h-0.020603c-104.33262 103.191179-214.407469 216.884024-320.075204 318.496966h-0.020603C265.253087 769.670954 126.91831 835.138962 0 905.446761v4.260829c0 10.718004 11.513304 17.494535 20.883831 12.29006l49.89373-27.711871 95.91192-53.231517 79.604153-44.215373a932.268555 932.268555 0 0 0 174.150052-124.798197h0.020604a920.332877 920.332877 0 0 0 33.064692-31.486455l14.090817-14.090816 61.120644-61.09798 44.790213-44.790214 61.120644-61.120643 44.790213-44.790214 61.09798-61.120644h0.020604l44.769609-44.769609 61.120644-61.120644 3.539702-3.539702c12.489915-12.491976 12.489915-32.743276-0.00206-45.237312z" fill="#3EC3A4" p-id="591"></path></svg>