<svg class="icon" style="width: 1em;height: 1em;vertical-align: middle;fill: currentColor;overflow: hidden;" viewBox="0 0 1024 1024" version="1.1" xmlns="http://www.w3.org/2000/svg" p-id="880"><path d="M680.13587 239.109768l-80.596761-35.452438 19.20452-93.070118a96.61392 96.61392 0 0 1 36.282759-57.487879l56.25785-42.614213c13.954749-10.571654 34.094667-1.712151 35.732645 15.718408l6.603421 70.266167a96.622161 96.622161 0 0 1-17.857051 65.593295zM424.467072 820.34061l-80.596761-35.452438-55.627383 77.050899a96.620101 96.620101 0 0 0-17.857051 65.593294l6.603421 70.266167c1.637978 17.430559 21.777897 26.288002 35.732645 15.718409l56.25785-42.614214a96.61392 96.61392 0 0 0 36.282759-57.487878z" fill="#9A4588" p-id="881"></path><path d="M820.099549 423.603785l-35.677016-80.497864 76.894312-55.841659a96.618041 96.618041 0 0 1 65.541786-18.040422l70.28471 6.407687c17.434679 1.58853 26.349813 21.703724 15.817305 35.687318l-42.457627 56.37529a96.61598 96.61598 0 0 1-57.386921 36.443466zM239.581588 680.892019l-35.677016-80.497864-93.016549 19.464124a96.611859 96.611859 0 0 0-57.386921 36.443466L11.043475 712.679094c-10.532508 13.983594-1.617375 34.098788 15.817305 35.687318l70.28471 6.407688a96.607739 96.607739 0 0 0 65.541786-18.040422z" fill="#9A4588" p-id="882"></path><path d="M238.409249 345.013805l-35.114541 80.745106-93.150471-18.815114a96.61598 96.61598 0 0 1-57.640345-36.041698L9.654799 314.82556c-10.629344-13.909421-1.856375-34.086426 15.568002-35.796516l70.237323-6.898051a96.618041 96.618041 0 0 1 65.667467 17.580964zM820.709412 598.241089l-35.11454 80.745106 77.283718 55.301848a96.603618 96.603618 0 0 0 65.667467 17.580964l70.237323-6.898051c17.422317-1.712151 26.197347-21.887095 15.568002-35.796516l-42.851154-56.0786a96.622161 96.622161 0 0 0-57.640344-36.041697z" fill="#9A4588" p-id="883"></path><path d="M423.605845 203.902512l-80.497864 35.677016-55.839598-76.894313a96.618041 96.618041 0 0 1-18.040423-65.541785l6.407688-70.284711c1.58853-17.434679 21.703724-26.349813 35.687318-15.817305l56.375289 42.457627a96.61598 96.61598 0 0 1 36.443466 57.386921zM680.896139 784.418412l-80.497864 35.677016 19.464124 93.016549a96.611859 96.611859 0 0 0 36.443466 57.386921l56.37529 42.457627c13.983594 10.532508 34.098788 1.617375 35.687318-15.817305l6.407687-70.28471a96.607739 96.607739 0 0 0-18.040422-65.541786z" fill="#9A4588" p-id="884"></path><path d="M415.599326 280.411539l-83.151594 56.412376-78.324196-75.011153a110.251375 110.251375 0 0 1-33.569278-69.940632l-7.077301-80.230019c-1.755418-19.900918 19.021149-33.997831 36.863777-25.010586l71.93093 36.23125a110.245194 110.245194 0 0 1 52.578065 57.042843zM691.558449 687.176085l-83.151594 56.412376 40.749597 100.50386a110.261676 110.261676 0 0 0 52.578065 57.042843l71.93093 36.23125c17.842629 8.987246 38.621256-5.109667 36.863777-25.010585l-7.077301-80.230019a110.245194 110.245194 0 0 0-33.569278-69.938572z" fill="#FFCEEC" p-id="885"></path><path d="M810.529224 912.355829l-7.077301-80.230019a110.255495 110.255495 0 0 0-33.569278-69.940632l-78.324196-75.011153-21.720207 14.735621 62.939564 60.275532a110.251375 110.251375 0 0 1 33.569278 69.940632l7.077302 80.230019c0.745847 8.441253-2.573377 15.829667-7.992097 20.863101l8.233158 4.147484c17.842629 8.985185 38.619195-5.109667 36.863777-25.010585z" fill="#FEC0DD" p-id="886"></path><path d="M280.413599 608.402734l56.412376 83.151595-75.011153 78.324195a110.251375 110.251375 0 0 1-69.940632 33.569278l-80.230019 7.077301c-19.900918 1.755418-33.997831-19.021149-25.010585-36.863777l36.23125-71.93093a110.245194 110.245194 0 0 1 57.042843-52.578065zM687.178146 332.443611l56.412376 83.151595 100.50386-40.749597a110.261676 110.261676 0 0 0 57.042843-52.578065l36.23125-71.93093c8.987246-17.842629-5.109667-38.621256-25.010586-36.863778l-80.230019 7.077302a110.245194 110.245194 0 0 0-69.938571 33.569278z" fill="#FFCEEC" p-id="887"></path><path d="M687.178146 332.443611l56.412376 83.151595 100.50386-40.749597a110.261676 110.261676 0 0 0 57.042843-52.578065l36.23125-71.93093c8.987246-17.842629-5.109667-38.621256-25.010586-36.863778l-80.230019 7.077302a110.245194 110.245194 0 0 0-69.938571 33.569278z" fill="#FFCEEC" p-id="888"></path><path d="M687.178146 332.443611l56.412376 83.151595 100.50386-40.749597a110.261676 110.261676 0 0 0 57.042843-52.578065l36.23125-71.93093c8.987246-17.842629-5.109667-38.621256-25.010586-36.863778l-80.230019 7.077302a110.245194 110.245194 0 0 0-69.938571 33.569278z" fill="#FFCEEC" p-id="889"></path><path d="M912.357889 213.472836l-24.334791 2.146885c12.448633 5.65772 19.126227 21.044412 12.238478 34.716893l-36.23125 71.93093a110.245194 110.245194 0 0 1-57.042843 52.578065l-71.40348 28.949974 8.004458 11.799623 100.50386-40.749597a110.253435 110.253435 0 0 0 57.042843-52.578065l36.23125-71.93093c8.989306-17.842629-5.107607-38.621256-25.008525-36.863778z" fill="#FEC0DD" p-id="890"></path><path d="M501.932101 261.349183l-97.55962 24.060764-47.435432-97.526655a110.259616 110.259616 0 0 1-7.219466-77.242511l21.196878-77.70197c5.258013-19.274572 29.636071-25.286672 43.250862-10.66643l54.893898 58.936304a110.251375 110.251375 0 0 1 29.522751 71.741378z" fill="#FFCEEC" p-id="891"></path><path d="M498.584033 152.952123a110.257556 110.257556 0 0 0-29.522752-71.741378l-54.893898-58.936304c-10.590198-11.37107-27.68698-10.256421-37.238761-0.133923 0.043267 0.045328 0.090655 0.086535 0.133923 0.133923l54.893898 58.936304a110.251375 110.251375 0 0 1 29.522751 71.741378l3.350129 108.39912-64.429197 15.889418 3.974415 8.171347 97.55962-24.060765z" fill="#FEC0DD" p-id="892"></path><path d="M619.63164 738.590053l-97.55962 24.060764 3.350128 108.39912a110.251375 110.251375 0 0 0 29.522752 71.741378l54.893898 58.936304c13.616851 14.620242 37.994909 8.608141 43.250861-10.66643l21.196879-77.70197a110.261676 110.261676 0 0 0-7.219466-77.242511z" fill="#FFCEEC" p-id="893"></path><path d="M667.067072 836.114647l-47.435432-97.524594-33.130424 8.171347 43.461018 89.355308a110.259616 110.259616 0 0 1 7.219465 77.242511l-21.196878 77.70197a25.321698 25.321698 0 0 1-6.014161 10.800353c13.641576 14.443052 37.87747 8.412408 43.118999-10.800353l21.196879-77.70197a110.263737 110.263737 0 0 0-7.219466-77.244572z" fill="#FEC0DD" p-id="894"></path><path d="M261.351243 522.067899l24.060765 97.55962-97.526655 47.435432a110.259616 110.259616 0 0 1-77.242512 7.219466l-77.701969-21.196878c-19.274572-5.258013-25.286672-29.636071-10.666431-43.250862l58.936304-54.893898a110.251375 110.251375 0 0 1 71.741378-29.522751zM738.592113 404.37042l24.060764 97.559621 108.399121-3.350129a110.251375 110.251375 0 0 0 71.741377-29.522751l58.936305-54.893898c14.620242-13.616851 8.608141-37.994909-10.666431-43.250862l-77.701969-21.196878a110.261676 110.261676 0 0 0-77.242512 7.219465z" fill="#FFCEEC" p-id="895"></path><path d="M991.061189 370.910341l-77.70197-21.196879a110.228711 110.228711 0 0 0-47.538449-2.295229c3.498474 0.599562 6.982525 1.35365 10.433611 2.295229l77.701969 21.196879c19.274572 5.258013 25.286672 29.636071 10.666431 43.252922l-58.936304 54.893898a110.251375 110.251375 0 0 1-71.741378 29.522751l-71.57449 2.210755 0.280208 1.137313 108.39912-3.350128a110.257556 110.257556 0 0 0 71.741378-29.522752l58.936304-54.893898c14.620242-13.614791 8.608141-37.992849-10.66643-43.250861z" fill="#FEC0DD" p-id="896"></path><path d="M284.684704 405.913622l-23.395271 97.720328-108.417664-2.612524a110.257556 110.257556 0 0 1-71.941231-29.034448l-59.307168-54.49213c-14.710897-13.517955-8.865685-37.935159 10.371801-43.322974l77.555685-21.724327a110.255495 110.255495 0 0 1 77.289899 6.694076zM762.714688 520.36399l-23.395271 97.720327 97.846009 46.772a110.255495 110.255495 0 0 0 77.289899 6.694076l77.555685-21.724328c19.237485-5.387815 25.084758-29.80708 10.371801-43.322973l-59.307168-54.49213a110.253435 110.253435 0 0 0-71.941231-29.034449z" fill="#FFCEEC" p-id="897"></path><path d="M1002.382811 606.501031l-59.309228-54.49213a110.253435 110.253435 0 0 0-71.941232-29.034448l-108.417663-2.612524-0.212216 0.888011 71.527101 1.722453a110.257556 110.257556 0 0 1 71.941232 29.034448l59.307167 54.49213c14.710897 13.517955 8.865685 37.935159-10.3718 43.322974l-77.555685 21.724327c-3.706569 1.038416-7.452285 1.854315-11.216544 2.495084a110.257556 110.257556 0 0 0 48.321382-2.495084l77.555685-21.724327c19.237485-5.385754 25.082698-29.802959 10.371801-43.320914z" fill="#FEC0DD" p-id="898"></path><path d="M405.917743 739.315296l97.720328 23.395271-2.612524 108.417664a110.257556 110.257556 0 0 1-29.034448 71.941231l-54.49213 59.307168c-13.517955 14.710897-37.935159 8.865685-43.322974-10.371801l-21.724328-77.555685a110.255495 110.255495 0 0 1 6.694077-77.289899z" fill="#FFCEEC" p-id="899"></path><path d="M405.917743 739.315296l-3.809587 7.971493 64.427137 15.425838-2.612524 108.417664a110.257556 110.257556 0 0 1-29.034448 71.941232l-54.49213 59.309227c-0.084474 0.090655-0.173069 0.171009-0.257544 0.261665 9.597109 10.178128 26.80515 11.228906 37.362382-0.261665l54.49213-59.309227a110.253435 110.253435 0 0 0 29.034448-71.941232l2.612524-108.417664z" fill="#FEC0DD" p-id="900"></path><path d="M520.36605 261.287373l97.720328 23.395271 46.771999-97.846009a110.255495 110.255495 0 0 0 6.694076-77.2899l-21.724327-77.555685c-5.387815-19.237485-29.80708-25.084758-43.322974-10.3718l-54.49213 59.307167a110.253435 110.253435 0 0 0-29.034448 71.941232z" fill="#FFCEEC" p-id="901"></path><path d="M671.552453 109.546735l-21.724327-77.555685c-5.354849-19.120046-29.500088-25.002344-43.06543-10.633465a25.354664 25.354664 0 0 1 5.960591 10.633465l21.724328 77.555685a110.255495 110.255495 0 0 1-6.694076 77.2899l-42.960353 89.874516 33.295252 7.971493 46.771999-97.846009a110.265797 110.265797 0 0 0 6.692016-77.2899z" fill="#FEC0DD" p-id="902"></path><path d="M335.608308 333.638614l-55.845779 83.53482-100.777887-40.063501a110.257556 110.257556 0 0 1-57.399283-52.190719L84.865806 253.235526c-9.108806-17.780818 4.845943-38.654221 24.759222-37.034787l80.275347 6.531309a110.263737 110.263737 0 0 1 70.16727 33.093337zM744.241592 606.824506l-55.845779 83.53482 75.542723 77.813228a110.257556 110.257556 0 0 0 70.16727 33.093338l80.275347 6.531308c19.91328 1.619435 33.868029-19.251908 24.759222-37.034786l-36.719553-71.683688a110.257556 110.257556 0 0 0-57.399283-52.190719z" fill="#FFCEEC" p-id="903"></path><path d="M939.138315 770.762414l-36.719553-71.683688a110.257556 110.257556 0 0 0-57.399283-52.190719l-100.777887-40.063501-7.790182 11.653338 71.465291 28.410163a110.257556 110.257556 0 0 1 57.399283 52.190719l36.719553 71.683688c7.067 13.796102 0.247242 29.446518-12.465116 35.015644l24.810732 2.019142c19.91122 1.619435 33.863908-19.253968 24.757162-37.034786z" fill="#FEC0DD" p-id="904"></path><path d="M333.642735 688.391692l83.534819 55.845779-40.0635 100.777887a110.257556 110.257556 0 0 1-52.19072 57.399283l-71.683688 36.719553c-17.780818 9.108806-38.654221-4.845943-37.034786-24.759222l6.531309-80.275347a110.263737 110.263737 0 0 1 33.093337-70.16727zM606.828627 279.760468l83.534819 55.84578 77.813229-75.542723A110.257556 110.257556 0 0 0 801.270012 189.896254l6.531309-80.275346c1.619435-19.91328-19.251908-33.865969-37.034786-24.759223L699.082847 121.581238a110.257556 110.257556 0 0 0-52.19072 57.399283z" fill="#FFCEEC" p-id="905"></path><path d="M770.764474 84.863745l-8.029183 4.112458c5.350728 4.994288 8.639046 12.289986 7.959131 20.646765l-6.531308 80.275346a110.263737 110.263737 0 0 1-33.093338 70.167271l-62.679959 60.85243 21.973629 14.690293 77.813229-75.542723A110.257556 110.257556 0 0 0 801.270012 189.898314l6.531309-80.275346c1.619435-19.91328-19.253968-33.868029-37.036847-24.759223z" fill="#FEC0DD" p-id="906"></path><path d="M562.242658 266.230152h-100.483256l-22.702994-106.046201a110.257556 110.257556 0 0 1 11.48645-76.723304l39.185792-70.365064c9.72073-17.455283 34.828152-17.455283 44.546821 0l39.185792 70.365064a110.259616 110.259616 0 0 1 11.48645 76.723304z" fill="#D691C6" p-id="907"></path><path d="M573.461263 83.458587L534.275471 13.093523c-9.72073-17.455283-34.828152-17.455283-44.546821 0l-0.581019 1.042537 38.604773 69.324587a110.259616 110.259616 0 0 1 11.48645 76.723304l-22.702994 106.046201h45.708859l22.702994-106.046201a110.263737 110.263737 0 0 0-11.48645-76.725364z" fill="#CD7CBB" p-id="908"></path><path d="M562.242658 757.769848h-100.483256l-22.702994 106.046201a110.257556 110.257556 0 0 0 11.48645 76.723304l39.185792 70.365064c9.72073 17.455283 34.828152 17.455283 44.546821 0l39.185792-70.365064a110.259616 110.259616 0 0 0 11.48645-76.723304z" fill="#D691C6" p-id="909"></path><path d="M584.947713 863.816049l-22.702994-106.046201h-45.708859l22.702994 106.046201a110.257556 110.257556 0 0 1-11.48645 76.723304l-38.604773 69.324587 0.581019 1.042537c9.72073 17.455283 34.828152 17.455283 44.546821 0l39.185792-70.365064a110.265797 110.265797 0 0 0 11.48645-76.725364z" fill="#CD7CBB" p-id="910"></path><path d="M266.22397 461.767643v100.462653l-30.431365 6.510706-75.614835 16.194348a110.121573 110.121573 0 0 1-76.706821-11.476148l-70.381547-39.187852c-17.451162-9.724851-17.451162-34.819911 0-44.544761l70.381547-39.187852a110.121573 110.121573 0 0 1 76.706821-11.476148l75.614835 16.194349z" fill="#D691C6" p-id="911"></path><path d="M266.22397 461.767643v100.462653l-30.431365 6.510706c-1.895522-0.906554-3.77044-1.854315-5.604151-2.88449l-61.645665-34.34603c-15.308399-8.509244-15.308399-30.51378 0-39.023024l61.645665-34.34603c1.833711-1.030175 3.70863-1.977936 5.604151-2.88449z" fill="#CD7CBB" p-id="912"></path><path d="M757.771909 461.757342v100.483256l106.046201 22.702994a110.257556 110.257556 0 0 0 76.723303-11.48645l70.365064-39.185792c17.455283-9.72073 17.455283-34.828152 0-44.546821l-70.365064-39.185792a110.259616 110.259616 0 0 0-76.723303-11.48645z" fill="#D691C6" p-id="913"></path><path d="M1010.908538 489.724529l-70.365064-39.185792a110.249314 110.249314 0 0 0-76.546114-11.519415 110.160719 110.160719 0 0 1 30.837255 11.519415l70.365064 39.185792c17.455283 9.72073 17.455283 34.828152 0 44.548882l-70.365064 39.185791a110.160719 110.160719 0 0 1-30.837255 11.519416 110.249314 110.249314 0 0 0 76.546114-11.519416l70.365064-39.185791c17.453223-9.72073 17.453223-34.828152 0-44.548882z" fill="#CD7CBB" p-id="914"></path><path d="M373.743321 302.68804l-71.05116 71.051161-91.040674-58.932184a110.255495 110.255495 0 0 1-46.12917-62.372967L143.472454 174.96902c-5.468168-19.214822 12.283805-36.968855 31.500687-31.500687l77.465029 22.047803a110.249314 110.249314 0 0 1 62.372968 46.12917z" fill="#D691C6" p-id="915"></path><path d="M314.809078 211.647366a110.255495 110.255495 0 0 0-62.372968-46.12917L174.973141 143.470394c-9.360169-2.664032-18.363897 0.191613-24.516102 6.032704l56.270212 16.017158a110.249314 110.249314 0 0 1 62.372968 46.129171l58.932183 91.040673-53.091092 53.091092 27.74673 17.962129 71.051161-71.05116z" fill="#CD7CBB" p-id="916"></path><path d="M721.31402 650.258739l-71.05116 71.051161 58.932183 91.040673a110.255495 110.255495 0 0 0 62.372968 46.129171l77.465029 22.047802c19.214822 5.468168 36.968855-12.283805 31.500687-31.500687l-22.047802-77.465029a110.249314 110.249314 0 0 0-46.129171-62.372968z" fill="#D691C6" p-id="917"></path><path d="M880.531667 849.028919l-22.047803-77.462969a110.249314 110.249314 0 0 0-46.12917-62.372967l-91.040674-58.932184-17.962129 17.962129 63.293944 40.972115a110.255495 110.255495 0 0 1 46.12917 62.372968l22.047803 77.462969c2.806196 9.854653-0.506846 19.317839-6.984586 25.467983l21.192758 6.032704c19.216882 5.466108 36.970916-12.287926 31.500687-31.502748z" fill="#CD7CBB" p-id="918"></path><path d="M302.6901 650.258739l71.051161 71.051161-58.932183 91.040673a110.255495 110.255495 0 0 1-62.372968 46.129171l-77.465029 22.047802c-19.214822 5.468168-36.968855-12.283805-31.500687-31.500687l22.047802-77.465029a110.249314 110.249314 0 0 1 46.12917-62.372968z" fill="#D691C6" p-id="919"></path><path d="M302.6901 650.258739l-27.746729 17.962129 53.091092 53.091092-58.932184 91.040674a110.255495 110.255495 0 0 1-62.372968 46.12917l-56.270211 16.017159c6.152204 5.841092 15.155933 8.696736 24.516101 6.032704l77.46503-22.047803a110.249314 110.249314 0 0 0 62.372967-46.12917l58.932184-91.040674z" fill="#CD7CBB" p-id="920"></path><path d="M650.260799 302.68804l71.051161 71.051161 91.040674-58.932184a110.255495 110.255495 0 0 0 46.12917-62.372967l22.047802-77.46503c5.468168-19.214822-12.283805-36.968855-31.500687-31.500687l-77.465029 22.047803a110.249314 110.249314 0 0 0-62.372968 46.12917z" fill="#D691C6" p-id="921"></path><path d="M849.03098 143.470394l-21.192758 6.032704c6.47774 6.150144 9.788722 15.61333 6.984586 25.467983l-22.047803 77.462969a110.249314 110.249314 0 0 1-46.12917 62.372967l-63.293944 40.972115 17.962129 17.962129 91.040674-58.932183a110.255495 110.255495 0 0 0 46.12917-62.372968l22.047803-77.462969c5.470229-19.218942-12.283805-36.972976-31.500687-31.502747z" fill="#CD7CBB" p-id="922"></path><path d="M493.649495 340.15344l-97.545198 43.644388-68.10074-93.084541a117.248322 117.248322 0 0 1-22.173484-79.469749l7.47701-85.327324c1.854315-21.165973 26.228252-32.071404 43.24468-19.348745l68.601405 51.288286a117.254503 117.254503 0 0 1 44.474709 69.491476z" fill="#C365AF" p-id="923"></path><path d="M469.627877 227.347231a117.254503 117.254503 0 0 0-44.474709-69.491476l-68.601405-51.288286c-12.72472-9.514695-29.561898-5.812247-38.021694 5.509376l61.231534 45.77891a117.260685 117.260685 0 0 1 44.474709 69.491476l20.704455 97.234085a19.690762 19.690762 0 0 1-11.218604 22.076648l-48.811746 21.839707 11.19388 15.302218 97.545198-43.644389z" fill="#B2529F" p-id="924"></path><path d="M627.897763 640.202172l-97.545198 43.644388 24.021618 112.806209a117.260685 117.260685 0 0 0 44.474709 69.491476l68.601405 51.288286c17.016428 12.72266 41.390366 1.817228 43.244681-19.348745l7.477009-85.327324a117.260685 117.260685 0 0 0-22.173484-79.469749z" fill="#C365AF" p-id="925"></path><path d="M695.998503 733.286713l-68.10074-93.084541-34.197685 15.302217 56.90686 77.784384a117.248322 117.248322 0 0 1 22.173484 79.46975l-7.477009 85.327324c-0.467699 5.338366-2.369402 10.021541-5.222987 13.839369l7.369871 5.509375c17.016428 12.72266 41.390366 1.817228 43.244681-19.348744l7.477009-85.327324a117.254503 117.254503 0 0 0-22.173484-79.47181z" fill="#B2529F" p-id="926"></path><path d="M383.80813 627.893642l-93.086601 68.094559a117.2339 117.2339 0 0 1-79.467689 22.189967l-7.664502-0.679915-77.675185-6.799155c-21.159792-1.854315-32.059042-26.228252-19.346684-43.246741l51.282105-68.609646a117.326616 117.326616 0 0 1 69.495597-44.462347l112.804148-24.023678 8.447434 18.893407zM640.204232 396.102237l43.644389 97.545198 112.806208-24.021618a117.260685 117.260685 0 0 0 69.491476-44.474709l51.288286-68.601405c12.72266-17.016428 1.817228-41.390366-19.348744-43.244681l-85.327324-7.477009a117.260685 117.260685 0 0 0-79.46975 22.173484z" fill="#C365AF" p-id="927"></path><path d="M898.085847 313.305022l-85.327324-7.477009a117.120581 117.120581 0 0 0-30.375737 1.316564l70.311496 6.160445c21.165973 1.854315 32.071404 26.228252 19.348744 43.244681l-51.288286 68.601405a117.254503 117.254503 0 0 1-69.491476 44.474709l-71.362273 15.195079 3.94763 8.824478 112.806208-24.021617a117.260685 117.260685 0 0 0 69.491476-44.47471l51.288286-68.601404c12.72266-17.014368 1.817228-41.388306-19.348744-43.242621z" fill="#B2529F" p-id="928"></path><path d="M626.865528 382.870671l-97.891337-42.859395 23.115064-112.995761a117.252443 117.252443 0 0 1 43.914294-69.845856l68.187275-51.838399c16.913411-12.858643 41.373883-2.148945 43.399207 19.000545l8.161045 85.265513a117.254503 117.254503 0 0 1-21.534775 79.64488z" fill="#C365AF" p-id="929"></path><path d="M715.751076 209.597318l-8.161045-85.265513c-2.025324-21.15155-26.485796-31.859188-43.399207-19.000545l-7.153534 5.437263c2.787653 3.753957 4.660511 8.338235 5.161176 13.563282l8.161045 85.265513a117.254503 117.254503 0 0 1-21.534776 79.64488l-56.478307 78.515807 34.52116 15.112666 67.350773-93.628473a117.287469 117.287469 0 0 0 21.532715-79.64488z" fill="#B2529F" p-id="930"></path><path d="M495.029929 683.986664l-97.891336-42.859395-67.350773 93.628473a117.254503 117.254503 0 0 0-21.534775 79.644879l8.161045 85.265514c2.025324 21.14949 26.485796 31.859188 43.399207 19.000545l68.187274-51.838399a117.252443 117.252443 0 0 0 43.914295-69.845856z" fill="#C365AF" p-id="931"></path><path d="M397.138593 641.129329l-10.872466 15.112666 49.186729 21.534775a19.153011 19.153011 0 0 1 11.082622 21.38231l-20.010117 97.825405a117.252443 117.252443 0 0 1-43.914294 69.845856l-61.033741 46.399076c8.492762 11.437001 25.503009 15.120907 38.238031 5.437263l68.187275-51.838399a117.252443 117.252443 0 0 0 43.914294-69.845856l23.115064-112.995761z" fill="#B2529F" p-id="932"></path><path d="M382.880973 397.134472l-34.057582 77.757599-8.818296 20.129617-112.98958-23.117124a117.205055 117.205055 0 0 1-69.845856-43.906053l-51.838399-68.176973c-12.856582-16.915471-2.142764-41.392426 18.996424-43.411569l79.920966-7.643897 5.35691-0.515088a117.29159 117.29159 0 0 1 79.632517 21.530655zM683.990785 528.970071l-42.859395 97.891336 93.628473 67.350773a117.254503 117.254503 0 0 0 79.644879 21.534775l85.265514-8.161045c21.14949-2.025324 31.859188-26.485796 19.000545-43.399207l-51.8384-68.187274a117.252443 117.252443 0 0 0-69.845856-43.914295z" fill="#C365AF" p-id="933"></path><path d="M918.670801 664.186703l-51.8384-68.187274a117.252443 117.252443 0 0 0-69.845856-43.914295l-112.99576-23.115063-3.731294 8.521606 71.335489 14.591397a117.252443 117.252443 0 0 1 69.845856 43.914294l51.8384 68.187275c12.858643 16.913411 2.148945 41.373883-19.000546 43.399207l-71.675446 6.860964a117.161788 117.161788 0 0 0 31.801498 1.300081l85.265514-8.161045c21.14949-2.021203 31.859188-26.481675 19.000545-43.397147z" fill="#B2529F" p-id="934"></path><path d="M484.332594 408.775448l-1.050779 1.050778-74.502246 74.502247-35.273188-22.828675-61.542646-39.847164a117.260685 117.260685 0 0 1-49.077531-66.322658l-23.44678-82.393386c-5.810186-20.438669 13.062617-39.311473 33.501287-33.501287l82.393386 23.44678a117.260685 117.260685 0 0 1 66.322658 49.077531z" fill="#B2529F" p-id="935"></path><path d="M483.279755 409.826226l-74.502247 74.502247-35.273187-22.828675c17.739611-31.853007 51.776589-53.404265 90.820216-53.404265 6.471559 0 12.817436 0.597501 18.955218 1.730693z" fill="#9A4588" p-id="936"></path><path d="M421.662936 311.951373a117.254503 117.254503 0 0 0-66.33502-49.058988l-82.383085-23.44884c-9.846411-2.802076-19.32196 0.138043-25.857389 6.214014l60.553679 17.234826a117.258624 117.258624 0 0 1 66.33296 49.058988l54.67138 84.455796a18.219673 18.219673 0 0 1-2.410609 22.781287L379.825474 465.597833l28.947914 18.738881 75.563326-75.563326z" fill="#9A4588" p-id="937"></path><path d="M615.230733 539.663286l-75.563327 75.563326 62.673779 96.822015a117.266866 117.266866 0 0 0 66.33296 49.058988l82.383084 23.44884c20.434549 5.816367 39.315594-13.064678 33.499226-33.499226l-23.44884-82.383084a117.254503 117.254503 0 0 0-49.058988-66.33296z" fill="#B2529F" p-id="938"></path><path d="M784.558516 751.055169l-23.448841-82.383085a117.254503 117.254503 0 0 0-49.058987-66.332959l-96.819955-62.675839-18.738881 18.738881 67.874102 43.936958a117.258624 117.258624 0 0 1 49.058987 66.332959l23.44884 82.383085c3.014292 10.590198-0.613984 20.753903-7.643897 27.287272l21.829405 6.214014c20.434549 5.816367 39.315594-13.064678 33.499227-33.501286z" fill="#9A4588" p-id="939"></path><path d="M615.230733 484.334654l-75.563327-75.563327 62.673779-96.819954a117.266866 117.266866 0 0 1 66.33296-49.058988l82.383084-23.44884c20.434549-5.816367 39.315594 13.064678 33.499226 33.499226l-23.44884 82.383084a117.254503 117.254503 0 0 1-49.058988 66.33296z" fill="#B2529F" p-id="940"></path><path d="M751.057229 239.443545l-21.829405 6.214014c7.029913 6.533369 10.656129 16.697074 7.643897 27.287272l-23.44884 82.383085a117.254503 117.254503 0 0 1-49.058988 66.332959l-67.874101 43.936958 18.738881 18.738881 96.819954-62.675839a117.258624 117.258624 0 0 0 49.058988-66.332959l23.44884-82.383085c5.818428-20.436609-13.062617-39.317654-33.499226-33.501286z" fill="#9A4588" p-id="941"></path><path d="M484.332594 615.222492l-62.675839 96.815834a117.260685 117.260685 0 0 1-66.322658 49.07753l-82.393386 23.44678c-20.438669 5.810186-39.311473-13.062617-33.501287-33.501286l23.44678-82.393386a117.260685 117.260685 0 0 1 49.077531-66.322658l61.542646-39.847164 35.273188-22.828675 74.502246 74.502246z" fill="#B2529F" p-id="942"></path><path d="M483.279755 614.171713c-6.139842 1.133192-12.485719 1.730694-18.955218 1.730694-39.043628 0-73.080605-21.551258-90.820216-53.404265l35.273187-22.828675z" fill="#9A4588" p-id="943"></path><path d="M408.773388 539.663286l-28.947914 18.738881 44.746675 44.746675a21.124766 21.124766 0 0 1 2.795895 26.417804l-53.393963 82.481981a117.258624 117.258624 0 0 1-66.33296 49.058988l-60.553679 17.234826c6.535429 6.075971 16.010978 9.01609 25.857389 6.214014l82.383085-23.44884a117.258624 117.258624 0 0 0 66.332959-49.058988l62.675839-96.822015z" fill="#9A4588" p-id="944"></path><path d="M556.026583 435.739245h-88.049046l-19.894737-92.925894a96.61392 96.61392 0 0 1 10.064809-67.231272l34.335728-61.660087c8.517486-15.293976 30.5179-15.293976 39.035386 0l34.335729 61.660087a96.61392 96.61392 0 0 1 10.064808 67.231272z" fill="#B2529F" p-id="945"></path><path d="M565.856512 275.582079l-34.335728-61.660087c-8.517486-15.293976-30.5179-15.293976-39.035387 0l-4.324674 7.767519 30.011055 53.892568a96.61392 96.61392 0 0 1 10.064808 67.231272l-19.894737 92.925894h47.686795l19.894737-92.925894a96.626282 96.626282 0 0 0-10.066869-67.231272z" fill="#9A4588" p-id="946"></path><path d="M556.026583 588.260755h-88.049046l-19.894737 92.925894a96.61598 96.61598 0 0 0 10.064809 67.231272l34.335728 61.660087c8.517486 15.293976 30.5179 15.293976 39.035386 0l34.335729-61.660087a96.61392 96.61392 0 0 0 10.064808-67.231272z" fill="#B2529F" p-id="947"></path><path d="M575.92132 681.186649l-19.894737-92.925894h-47.686794l19.894737 92.925894a96.61392 96.61392 0 0 1-10.064809 67.231272l-30.011054 53.892568 4.324674 7.767519c8.517486 15.293976 30.5179 15.293976 39.035386 0l34.335729-61.660087a96.605678 96.605678 0 0 0 10.066868-67.231272z" fill="#9A4588" p-id="948"></path><path d="M588.262815 556.024523v-88.049046l92.925894-19.894737a96.61598 96.61598 0 0 1 67.231272 10.064808l61.660087 34.335729c15.293976 8.517486 15.293976 30.5179 0 39.035386l-61.660087 34.335728a96.61392 96.61392 0 0 1-67.231272 10.064809z" fill="#B2529F" p-id="949"></path><path d="M810.078008 492.481277l-61.660087-34.335729a96.626282 96.626282 0 0 0-67.231272-10.064808l-3.809587 0.815898a96.529445 96.529445 0 0 1 23.352004 9.24891l61.660087 34.335729c15.296036 8.517486 15.296036 30.5179 0 39.035386l-61.660087 34.335728a96.562411 96.562411 0 0 1-23.352004 9.24891l3.809587 0.815899a96.61392 96.61392 0 0 0 67.231272-10.064809l61.660087-34.335728c15.296036-8.517486 15.296036-30.5179 0-39.035386z" fill="#9A4588" p-id="950"></path><path d="M435.747486 467.969296v88.059348l-58.575743 12.526926-34.366633 7.355449c-22.890486 4.903632-46.769939 1.339227-67.229212-10.054507l-61.645664-34.34603c-15.308399-8.509244-15.308399-30.51378 0-39.023024l61.645664-34.34603a96.566532 96.566532 0 0 1 67.229212-10.054507l34.366633 7.355449z" fill="#B2529F" p-id="951"></path><path d="M435.747486 467.969296v88.059348l-58.575743 12.526926c-10.590198-16.276763-16.750643-35.705861-16.750643-56.5566s6.160446-40.279837 16.750643-56.5566z" fill="#9A4588" p-id="952"></path><path d="M512.003091 511.99897m-103.895196 0a103.895196 103.895196 0 1 0 207.790391 0 103.895196 103.895196 0 1 0-207.790391 0Z" fill="#FEA95C" p-id="953"></path><path d="M512.003091 408.103774c-8.208433 0-16.184047 0.980726-23.842368 2.781472 45.881928 10.77975 80.052829 51.943477 80.052829 101.113724s-34.1709 90.333974-80.052829 101.113723a104.0353 104.0353 0 0 0 23.842368 2.781473c57.38074 0 103.895196-46.514456 103.895195-103.895196s-46.516516-103.895196-103.895195-103.895196z" fill="#FE9738" p-id="954"></path></svg>