<svg class="icon" style="width: 1em;height: 1em;vertical-align: middle;fill: currentColor;overflow: hidden;" viewBox="0 0 1024 1024" version="1.1" xmlns="http://www.w3.org/2000/svg" p-id="843"><path d="M824.931126 864.170882l105.923646 14.73783c26.685918 3.712788 44.355655-26.906378 27.790277-48.152918l-62.118109-79.674526a157.764627 157.764627 0 0 0-124.419591-60.762385h-78.52896v22.956647c0 76.02767 56.050318 140.418368 131.352737 150.895352z" fill="#6FD7A3" p-id="844"></path><path d="M958.645049 830.755794l-62.118109-79.674526a157.768748 157.768748 0 0 0-124.419591-60.762385h-38.568075a157.764627 157.764627 0 0 1 124.419591 60.762385l62.118109 79.674526c12.467302 15.988475 5.540336 37.280343-10.021642 45.260158l20.79738 2.89482c26.687979 3.710727 44.357716-26.908438 27.792337-48.154978z" fill="#3EC3A4" p-id="845"></path><path d="M836.40945 807.372649a15.382726 15.382726 0 0 1-8.942007-2.861854l-107.829489-76.567487a15.452778 15.452778 0 1 1 17.910801-25.183909l107.829488 76.567488a15.452778 15.452778 0 0 1-8.968793 28.045762z" fill="#3EC3A4" p-id="846"></path><path d="M447.388843 859.331072l-65.859742 17.789238c-18.485644 4.992278-34.008475-14.496767-25.004656-31.395925l18.973951-35.615564a128.958587 128.958587 0 0 1 113.818986-68.326005l11.193992-8.470183 11.486566 8.470183 9.01 19.375724-9.01 13.800361c0 39.491121-26.484002 74.074439-64.609097 84.372171z" fill="#6FD7A3" p-id="847"></path><path d="M489.317382 741.782816c-5.354903 0-10.656236 0.350263-15.885457 0.997219v32.176806c0 39.491121-26.484002 74.076499-64.607036 84.374231l-47.681094 12.879376c5.134443 4.697645 12.485845 7.044407 20.387366 4.909862l65.859742-17.789238c38.125095-10.297732 64.607037-44.88311 64.607037-84.374231l9.01-13.800361-9.01-19.375724-11.486566-8.470183z" fill="#3EC3A4" p-id="848"></path><path d="M576.604976 859.331072l65.859742 17.789238c18.485644 4.992278 34.008475-14.496767 25.004656-31.395925l-18.973951-35.615564a128.958587 128.958587 0 0 0-113.818986-68.326005l-11.350581-8.470183-11.329977 8.470183v33.176085c0.00206 39.491121 26.484002 74.074439 64.609097 84.372171z" fill="#6FD7A3" p-id="849"></path><path d="M667.469374 845.724385l-18.973951-35.615564a128.958587 128.958587 0 0 0-113.818986-68.326005l-11.350581-8.470183-11.329977 8.470183v0.997219c41.32485 5.124141 78.046833 30.001054 97.931469 67.328786l18.973951 35.615564c5.155047 9.6755 2.262287 20.193691-4.61729 26.486063l18.178649 4.909862c18.487704 4.994338 34.010535-14.496767 25.006716-31.395925z" fill="#3EC3A4" p-id="850"></path><path d="M198.932889 864.236814l-105.923646 14.73783c-26.685918 3.712788-44.355655-26.906378-27.790276-48.152918l62.118109-79.674526a157.764627 157.764627 0 0 1 124.419591-60.762386h78.52896v22.956648c0.00206 76.02767-56.050318 140.418368-131.352738 150.895352z" fill="#6FD7A3" p-id="851"></path><path d="M291.719613 690.384814v22.956648c0 76.02767-56.050318 140.418368-131.352738 150.895352l-85.126266 11.84507c5.11796 2.622852 11.165148 3.811685 17.768634 2.89276l105.923646-14.73783c75.30242-10.476984 131.352738-74.867682 131.352738-150.895352v-22.956648z" fill="#3EC3A4" p-id="852"></path><path d="M187.460746 807.436521a15.452778 15.452778 0 0 1-8.970853-28.045763l104.05695-72.990684a15.452778 15.452778 0 1 1 17.914921 25.185969L196.404815 804.574666a15.388907 15.388907 0 0 1-8.944069 2.861855z" fill="#3EC3A4" p-id="853"></path><path d="M244.788494 612.441c0 18.399108-6.737411 36.777613-20.150423 51.158998l-29.092431 31.152802a74.873863 74.873863 0 0 1-42.587857 22.808301c-19.429293 3.172971-40.012394-1.27743-56.886829-13.804482l-1.071393-0.803545a180.824293 180.824293 0 0 1-66.508758-97.022845l-27.876813-100.813927c-3.255385-11.744112 6.943448-22.849508 18.934805-20.583101l51.158999 9.663138 52.642465 9.930985a180.978821 180.978821 0 0 1 103.100938 59.194444c12.259204 14.113538 18.337297 31.626687 18.337297 49.119232z" fill="#FC8B96" p-id="854"></path><path d="M244.788494 612.441c0 18.399108-6.737411 36.777613-20.150423 51.158998l-29.092431 31.152802a74.873863 74.873863 0 0 1-42.587857 22.808301c-23.735468-8.653556-44.339172-25.795838-56.969244-49.613721l-0.906563-1.689504a254.585556 254.585556 0 0 1-25.878253-163.511l1.504071-8.550537 52.642465 9.930985a180.978821 180.978821 0 0 1 103.100938 59.194444c12.259204 14.113538 18.337297 31.626687 18.337297 49.119232z" fill="#FD4755" p-id="855"></path><path d="M799.359869 663.595878l29.086249 31.152801c26.03072 27.878873 68.847279 31.760611 99.468505 9.016181l1.085816-0.807665a180.952036 180.952036 0 0 0 66.504637-97.024906L1023.38601 505.120423c3.251265-11.756474-6.95169-22.847448-18.936865-20.585161l-103.807645 19.587942a180.941734 180.941734 0 0 0-103.100938 59.200624c-25.14064 28.962628-24.355639 72.236588 1.819307 100.27205z" fill="#FC8B96" p-id="856"></path><path d="M1004.449145 484.533201l-23.925022 4.514272c3.995058 3.970334 5.997738 9.918623 4.295872 16.07089l-27.880933 100.811866a180.933493 180.933493 0 0 1-66.504638 97.024906l-1.085815 0.807665a74.758482 74.758482 0 0 1-25.387885 12.255083c21.41343 5.682502 45.017034 1.813126 63.95596-12.255083l1.085815-0.807665a180.952036 180.952036 0 0 0 66.504638-97.024906l27.880933-100.811866c3.251265-11.754413-6.95375-22.845388-18.938925-20.585162zM389.014427 596.493732c0 42.340613-25.672216 81.879122-66.797211 98.094238l-55.794832 22.02536a105.511571 105.511571 0 0 1-30.390464 7.046467c-40.939561 3.234782-81.343426-17.760393-101.493849-55.712417l-0.88596-1.689504a254.585556 254.585556 0 0 1-25.878253-163.511l25.486783-144.967666c2.987537-16.915642 22.643471-24.848068 36.509765-14.731648l33.233775 24.25056 86.865219 63.397599a254.618522 254.618522 0 0 1 95.27153 137.550332c2.61667 9.415893 3.873496 18.893597 3.873497 28.247679z" fill="#FE646F" p-id="857"></path><path d="M389.014427 596.493732c0 42.340613-25.672216 81.879122-66.797211 98.094238l-55.794832 22.02536a105.511571 105.511571 0 0 1-30.390464 7.046467c-25.52799-16.998056-45.657809-42.320009-55.918455-73.431603l-0.803544-2.410633a341.403386 341.403386 0 0 1 2.760896-222.004918l20.933364-58.514521 86.865219 63.397599a254.618522 254.618522 0 0 1 95.27153 137.550332c2.61667 9.415893 3.873496 18.893597 3.873497 28.247679z" fill="#FD4755" p-id="858"></path><path d="M220.346319 533.087892a15.454839 15.454839 0 0 1-14.391687-9.823847l-34.904736-84.423679a15.452778 15.452778 0 0 1 28.777194-11.266106l34.904736 84.42368a15.450718 15.450718 0 0 1-14.385507 21.089952z" fill="#FD4755" p-id="859"></path><path d="M701.778663 694.592091l55.798953 22.012998c49.935139 19.701262 106.700405-1.244464 131.871951-48.659769l0.892141-1.681263a254.657669 254.657669 0 0 0 25.882373-163.51306l-25.495024-144.982088c-2.973115-16.9074-22.645532-24.835706-36.511825-14.717227l-120.098994 87.637858a254.647367 254.647367 0 0 0-95.257108 137.556513c-14.449378 52.011992 12.704244 106.535576 62.917533 126.346038z" fill="#FE646F" p-id="860"></path><path d="M916.224081 502.753057l-25.495024-144.982088c-2.973115-16.9074-22.643471-24.835706-36.511825-14.717226l-6.446899 4.703825a22.977251 22.977251 0 0 1 4.39271 10.013401l25.495024 144.982088a254.657669 254.657669 0 0 1-25.882374 163.513061l-0.894201 1.681262c-15.576401 29.339675-43.253357 48.527906-73.919911 54.237192 44.534908 8.332138 90.530618-12.879376 112.487986-54.237192l0.892141-1.681262a254.661789 254.661789 0 0 0 25.882373-163.513061z" fill="#FD4755" p-id="861"></path><path d="M573.211546 589.550284c0 66.220307-46.420147 124.508187-112.496227 138.333273l-57.237092 11.991356-21.489664 4.491608c-70.46467 14.752253-140.76451-25.754631-163.304963-94.138327l-0.803544-2.410633a341.403386 341.403386 0 0 1 2.760896-222.004918l66.467551-185.866019c7.767597-21.675097 35.561994-27.711983 51.591677-11.208416l36.901235 37.972628 102.050149 105.017082a341.576457 341.576457 0 0 1 94.818249 203.379169c0.494489 4.841871 0.741733 9.663137 0.741733 14.443197z" fill="#FC8B96" p-id="862"></path><path d="M353.015634 424.887537a15.456899 15.456899 0 0 1-15.024222-11.9007l-22.400347-89.788884a15.452778 15.452778 0 0 1 30.075227-7.108279l22.400348 89.788885a15.452778 15.452778 0 0 1-15.051006 19.008978zM806.002503 531.274766c-1.874937 0-3.78078-0.344082-5.628932-1.069333a15.450718 15.450718 0 0 1-8.754514-20.02268L824.148186 427.572199a15.456899 15.456899 0 0 1 20.02268-8.754514 15.450718 15.450718 0 0 1 8.754514 20.022681l-32.529129 82.610553a15.46308 15.46308 0 0 1-14.393748 9.823847z" fill="#FD4755" p-id="863"></path><path d="M573.211546 589.550284c0 66.220307-46.420147 124.508187-112.496227 138.333273l-57.237092 11.991356c-70.155614-10.89936-126.053465-67.580151-134.212532-140.125795l-0.329659-2.863915a386.088701 386.088701 0 0 1 54.496799-245.060463l52.16858-85.113904 102.050149 105.017082a341.576457 341.576457 0 0 1 94.818249 203.379169c0.494489 4.841871 0.741733 9.663137 0.741733 14.443197z" fill="#FD4755" p-id="864"></path><path d="M563.270259 727.893859l78.734997 16.482963c70.46261 14.750192 140.76245-25.771114 163.315264-94.138326l0.799424-2.425056a341.504344 341.504344 0 0 0-2.758836-221.994616l-66.481974-185.882502c-7.753174-21.675097-35.549632-27.709922-51.591676-11.198114l-138.939022 143.000012a341.516706 341.516706 0 0 0-94.816188 203.368867c-7.336979 72.018189 40.883931 137.952104 111.738011 152.786772z" fill="#FC8B96" p-id="865"></path><path d="M668.687053 427.256963a15.452778 15.452778 0 0 1-15.051006-19.011038l22.400348-92.156251a15.452778 15.452778 0 0 1 30.075227 7.108279l-22.400348 92.15625a15.46102 15.46102 0 0 1-15.024221 11.90276z" fill="#FE646F" p-id="866"></path><path d="M803.361108 425.818824l-66.481974-185.882502c-7.28341-20.364702-32.25922-26.91874-48.55675-13.944588a30.779874 30.779874 0 0 1 9.988676 13.944588l66.481973 185.882502a341.504344 341.504344 0 0 1 2.758836 221.994616l-0.799423 2.425056c-17.325655 52.525024-62.84542 88.579447-114.960431 95.794864 67.085662 9.238701 132.022358-30.596501 153.528505-95.794864l0.799424-2.425056a341.504344 341.504344 0 0 0-2.758836-221.994616z" fill="#FE646F" p-id="867"></path><path d="M716.800824 598.574707c-4.285571 40.71292-23.591242 76.501555-52.044958 102.132563-28.47432 25.631009-66.096684 41.083787-107.015642 41.083788h-90.965356c-81.405237 0-149.83014-61.151795-158.936977-142.04194l-0.32966-2.863915a386.088701 386.088701 0 0 1 54.496799-245.060463l116.637572-190.31642c13.598445-22.19019 45.760828-22.437434 59.688933-0.453282l120.655294 190.460646a386.1979 386.1979 0 0 1 57.813995 247.059023z" fill="#FE646F" p-id="868"></path><path d="M658.980648 351.521865l-120.640872-190.460645c-11.002378-17.370983-33.373881-20.859191-48.99561-10.625331a35.046902 35.046902 0 0 1 10.429596 10.625331l120.640871 190.460645a386.160814 386.160814 0 0 1 57.818116 247.050781c-8.56496 81.407297-77.212383 143.21017-159.068841 143.21017h38.568075c81.856458 0 150.503881-61.802872 159.068841-143.21017a386.185538 386.185538 0 0 0-57.820176-247.050781z" fill="#FD4755" p-id="869"></path><path d="M511.99794 415.383048a15.452778 15.452778 0 0 1-15.452779-15.452779v-49.135714c0-8.534054 6.916664-15.452778 15.452779-15.452779s15.452778 6.918724 15.452778 15.452779v49.135714a15.452778 15.452778 0 0 1-15.452778 15.452779zM527.452778 474.210745v267.580313h-57.669769c-22.458038-16.46236-41.537069-45.987469-57.010451-88.286875-16.895038-46.172902-23.220375-90.965356-23.488223-92.840293a15.438356 15.438356 0 0 1 13.165767-17.430734c8.468123-1.174411 16.276927 4.718248 17.451338 13.165767 0.082415 0.72113 6.28413 43.947702 22.045964 86.906426 11.208415 30.493483 29.174846 66.179099 54.599818 78.603134v-247.697738c0-8.529934 6.922845-15.452778 15.452778-15.452778s15.452778 6.922845 15.452778 15.452778z" fill="#FD4755" p-id="870"></path></svg>