<svg class="icon" style="width: 1em;height: 1em;vertical-align: middle;fill: currentColor;overflow: hidden;" viewBox="0 0 1024 1024" version="1.1" xmlns="http://www.w3.org/2000/svg" p-id="807"><path d="M489.822308 869.977945v25.115763c0 12.444562-11.579211 21.633758-23.694116 18.831671l-97.084065-22.478505-5.480552-1.277422a140.388667 140.388667 0 0 0-63.314798 0l-58.287525 13.495345-44.297695 10.260582c-12.114904 2.802087-23.694116-6.387109-23.694116-18.831671v-25.115763a94.937171 94.937171 0 0 1 21.345308-59.935811 80.403407 80.403407 0 0 0 18.089942-50.82903v-51.117479c0-34.201941 24.847916-62.614277 57.483986-68.15664 3.791059-0.638711 7.664531-0.968368 11.641022-0.968368h4.306148l14.978802-3.791059 30.081225-7.643928 30.081226 7.643928 14.978802 3.791059h4.306148c3.976491 0 7.849964 0.329657 11.641022 0.968368 32.636069 5.542363 57.483985 33.954698 57.483985 68.15664v51.117479c0 9.271611 1.607079 18.378392 4.656409 26.990689 3.04933 8.591692 7.582117 16.668295 13.433534 23.838341a94.81149 94.81149 0 0 1 21.345308 59.935811z" fill="#8AC9FE" p-id="808"></path><path d="M278.68095 771.993504l-10.326513 125.55203-26.426151 6.127504 11.008492-133.797582a12.918444 12.918444 0 0 1 25.744172 2.118048zM468.483181 810.044194a80.411648 80.411648 0 0 1-18.098184-50.822848v-51.123661c0-38.172251-30.944515-69.118827-69.116766-69.118827h-4.310269l-18.497893-4.697616-14.881965 4.697616c38.172251 0 69.116766 30.944515 69.116766 69.118827v51.123661a80.415769 80.415769 0 0 0 18.098184 50.822848 94.830033 94.830033 0 0 1 21.341187 59.933751v25.115763a19.179872 19.179872 0 0 1-6.201678 14.156719l20.199749 4.677012c12.116965 2.806207 23.692056-6.395351 23.692056-18.833731v-25.115763c0-21.839794-7.53885-43.009971-21.341187-59.933751z" fill="#60B7FF" p-id="809"></path><path d="M377.903666 939.247178l-24.312223 16.132602a39.196249 39.196249 0 0 1-43.391137 0l-24.312224-16.132602a40.407739 40.407739 0 0 1-17.925113-36.983425l0.391468-4.718219 11.476193-139.527437h104.130488l11.867662 144.245656c1.215611 14.669748-5.665984 28.845011-17.925114 36.983425z" fill="#8AC9FE" p-id="810"></path><path d="M395.83084 902.263753l-10.59436-128.819757a16.798098 16.798098 0 0 0-16.742468-15.421779h-6.131625c-8.661745 0-15.475348 7.396685-14.764525 16.029585l10.542851 128.214012a40.4098 40.4098 0 0 1-17.929234 36.983424l-24.314284 16.136723c-0.927161 0.616047-1.879046 1.176464-2.845354 1.705976a39.218913 39.218913 0 0 0 40.535481-1.705976l24.314284-16.136723a40.418041 40.418041 0 0 0 17.929234-36.985485zM302.842767 638.980919l-9.33136 45.99749c-1.442251 7.355478-7.911774 12.465165-15.143631 12.465165-0.988972 0-1.998547-0.103018-3.008123-0.28845-8.365053-1.648286-13.804398-9.7867-12.156111-18.151753l7.685135-39.064386c3.791059-0.638711 7.664531-0.968368 11.641022-0.968368h4.306148l14.978802-3.791059 1.028118 3.801361zM388.432095 697.155124c-1.009575 0.185432-2.019151 0.28845-3.008122 0.28845-7.231856 0-13.70138-5.109688-15.143631-12.465165l-8.488675-42.99967c-0.453279-2.328204-0.370864-4.635805 0.185433-6.799181l14.978802 3.791059h4.306148c3.976491 0 7.849964 0.329657 11.641022 0.968368l7.705738 39.064386c1.648286 8.365053-3.811662 16.503467-12.176715 18.151753z" fill="#60B7FF" p-id="811"></path><path d="M331.897935 599.619841a15.452684 15.452684 0 0 1-15.452685-15.452684v-80.331294c0-29.265324-23.817737-53.072759-53.093362-53.07276h-101.081159a15.452684 15.452684 0 0 1 0-30.905368h101.083219c46.316846 0 83.998731 37.671584 83.998731 83.978128v80.331294a15.456805 15.456805 0 0 1-15.454744 15.452684z" fill="#6FD7A3" p-id="812"></path><path d="M821.558473 623.299535v25.115762c0 12.444562-11.579211 21.633758-23.694116 18.831672l-97.084064-22.478505-5.480552-1.277422a140.388667 140.388667 0 0 0-63.314799 0l-58.287525 13.495344-44.297695 10.260583c-12.114904 2.802087-23.694116-6.387109-23.694115-18.831672v-25.115762a94.937171 94.937171 0 0 1 21.345307-59.935812 80.403407 80.403407 0 0 0 18.089943-50.829029v-51.11748c0-34.201941 24.847916-62.614277 57.483985-68.156639 3.791059-0.638711 7.664531-0.968368 11.641023-0.968368h4.306148l14.978801-3.791059 30.081226-7.643928 30.081225 7.643928 14.978802 3.791059h4.306148c3.976491 0 7.849964 0.329657 11.641022 0.968368 32.636069 5.542363 57.483985 33.954698 57.483986 68.156639v51.11748c0 9.271611 1.607079 18.378392 4.656409 26.990688 3.04933 8.591692 7.582117 16.668295 13.433533 23.838341a94.81149 94.81149 0 0 1 21.345308 59.935812z" fill="#8AC9FE" p-id="813"></path><path d="M610.417116 525.315094l-10.326514 125.552029-26.42615 6.127505 11.008492-133.797582a12.918444 12.918444 0 0 1 25.744172 2.118048zM800.221407 563.365784a80.411648 80.411648 0 0 1-18.098184-50.822849v-51.12366c0-38.172251-30.944515-69.118827-69.116766-69.118827h-4.310269l-18.497893-4.697616-14.881965 4.697616c38.172251 0 69.116766 30.944515 69.116766 69.118827v51.12366a80.415769 80.415769 0 0 0 18.098184 50.822849 94.830033 94.830033 0 0 1 21.341187 59.933751v25.115762a19.179872 19.179872 0 0 1-6.201678 14.15672l20.199749 4.677012c12.116965 2.806207 23.692056-6.395351 23.692056-18.833732v-25.115762c0-21.839794-7.53885-43.009971-21.341187-59.933751z" fill="#60B7FF" p-id="814"></path><path d="M709.639832 692.568767l-24.312223 16.132603a39.196249 39.196249 0 0 1-43.391138 0l-24.312223-16.132603a40.407739 40.407739 0 0 1-17.925114-36.983424l0.391468-4.71822 11.476194-139.527437h104.130488l11.867662 144.245657c1.215611 14.669748-5.665984 28.845011-17.925114 36.983424z" fill="#8AC9FE" p-id="815"></path><path d="M727.569066 655.583283l-10.59436-128.819758a16.798098 16.798098 0 0 0-16.742468-15.421778h-6.131625c-8.661745 0-15.475348 7.396685-14.764525 16.029584l10.542851 128.214012a40.4098 40.4098 0 0 1-17.929234 36.983424l-24.314284 16.136723c-0.927161 0.616047-1.879046 1.176464-2.845354 1.705977a39.218913 39.218913 0 0 0 40.535481-1.705977l24.314284-16.136723a40.424222 40.424222 0 0 0 17.929234-36.985484zM634.578933 392.302508l-9.331361 45.997491c-1.442251 7.355478-7.911774 12.465165-15.14363 12.465165-0.988972 0-1.998547-0.103018-3.008123-0.28845-8.365053-1.648286-13.804398-9.7867-12.156112-18.151753l7.685135-39.064386c3.791059-0.638711 7.664531-0.968368 11.641023-0.968368h4.306148l14.978801-3.791059 1.028119 3.80136zM720.168261 450.476714c-1.009575 0.185432-2.019151 0.28845-3.008123 0.28845-7.231856 0-13.70138-5.109688-15.14363-12.465165l-8.488675-42.99967c-0.453279-2.328204-0.370864-4.635805 0.185432-6.799181l14.978802 3.791059h4.306148c3.976491 0 7.849964 0.329657 11.641022 0.968368l7.705739 39.064386c1.648286 8.365053-3.811662 16.503467-12.176715 18.151753zM787.906648 276.259031a15.452684 15.452684 0 0 1-7.600661-28.917124l51.789156-29.625886 3.933224-2.021211a15.452684 15.452684 0 0 1 21.048616 5.876141 15.452684 15.452684 0 0 1-5.876141 21.048616l-55.72444 31.647097a15.380572 15.380572 0 0 1-7.569754 1.992367zM966.407815 275.67801a15.380572 15.380572 0 0 1-7.571815-1.994427l-55.72444-30.993964a15.452684 15.452684 0 0 1 15.172475-26.924757l3.935284 1.947038 51.791216 29.046926a15.452684 15.452684 0 0 1-7.60272 28.919184z" fill="#60B7FF" p-id="816"></path><path d="M922.219319 217.713961l-45.062088-16.256224-45.062088 16.256224v127.443438a158.047994 158.047994 0 0 0 19.946325 76.857531l13.186291 23.692055c5.204464 9.349904 18.65448 9.349904 23.858944 0l13.186291-23.692055a158.041813 158.041813 0 0 0 19.946325-76.857531z" fill="#8AC9FE" p-id="817"></path><path d="M883.36921 217.716021c0 65.344251 0.465641 145.01417-16.287129 174.586487-4.071267 6.834207-9.541517 20.045222-16.571459 26.852645 0.506848 0.956006 1.005455 1.914072 1.532907 2.861837l13.18629 23.692056c5.204464 9.349904 18.65448 9.349904 23.858945 0l13.18629-23.692056a158.039753 158.039753 0 0 0 19.946325-76.85547V217.718081l-23.976385-8.649382z" fill="#60B7FF" p-id="818"></path><path d="M663.627919 347.419672a15.452684 15.452684 0 0 1-15.452684-15.452684v-41.722248c0-29.265324-23.807436-53.072759-53.070699-53.072759H379.910455a15.452684 15.452684 0 0 1 0-30.905369h215.194081c46.304484 0 83.976067 37.671584 83.976067 83.978128v41.722248a15.452684 15.452684 0 0 1-15.452684 15.452684z" fill="#6FD7A3" p-id="819"></path><path d="M376.957962 638.982979h-90.122115v-31.867556c0-19.987532 16.202655-36.190187 36.190186-36.190186h17.741742c19.987532 0 36.190187 16.202655 36.190187 36.190186z" fill="#BBF49B" p-id="820"></path><path d="M340.767775 570.923176h-17.741742c-3.673618 0-7.213313 0.556297-10.553153 1.574114 14.836637 4.518365 25.637033 18.302159 25.637034 34.616073v31.867556h38.850108v-31.867556c-0.00206-19.985472-16.204715-36.190187-36.192247-36.190187z" fill="#9BE69D" p-id="821"></path><path d="M708.696188 392.302508h-90.122115v-31.867555c0-19.987532 16.202655-36.190187 36.190186-36.190187h17.741742c19.987532 0 36.190187 16.202655 36.190187 36.190187z" fill="#BBF49B" p-id="822"></path><path d="M672.506001 324.242706h-17.741742c-3.673618 0-7.213313 0.556297-10.553153 1.574113 14.836637 4.518365 25.637033 18.302159 25.637034 34.616073v31.867556h38.850108v-31.867556c-0.00206-19.985472-16.206775-36.190187-36.192247-36.190186z" fill="#9BE69D" p-id="823"></path><path d="M905.930129 114.248968v58.761407h-61.660331v-58.761407c0-17.741742-14.383359-32.1251-32.1251-32.125101l-20.356336-9.450861-22.818464 9.450861h-164.084843a140.17645 140.17645 0 0 0-99.119698 41.056752l-98.870395 98.870395-31.628554 11.894446-32.704061 52.438169-178.175631 178.175631c-0.020604 0.041207-34.702608 14.193806-34.702608 14.193806l-30.287261 56.550643c-13.070911 21.621396-20.059645 46.471373-20.059644 72.388615v402.63102A13.674595 13.674595 0 0 1 65.662607 1023.99794H31.355588a13.674595 13.674595 0 0 1-13.674596-13.674596V607.675841a201.812057 201.812057 0 0 1 59.111668-142.70657L462.186727 79.575205c38.126923-38.126923 88.811727-59.111668 142.700388-59.111668h207.259643c51.795337 0 93.783371 41.988034 93.783371 93.785431z" fill="#6FD7A3" p-id="824"></path><path d="M466.919369 123.180619l-98.870395 98.870395L125.540728 464.55926c-0.020604 0.041207-0.041207 0.061811-0.041207 0.061811l-43.963917 43.943313a140.885213 140.885213 0 0 0-20.984745 26.739325c-13.070911 21.621396-20.059645 46.471373-20.059644 72.388615v401.508125c0 6.263488-3.535574 11.991283-9.135627 14.797491H65.664667a13.674595 13.674595 0 0 0 13.674596-13.674596V607.692324c0-25.917242 6.988734-50.767219 20.059644-72.388615l30.287262-56.550643 34.661401-14.131995s0.020604-0.020604 0.041207-0.061811l178.17563-178.175631 32.704061-52.438169 31.628555-11.894446 98.882756-98.882757c26.473539-26.473539 61.680935-41.04439 99.107336-41.04439h-38.848048a140.17645 140.17645 0 0 0-99.119698 41.056752zM812.146758 20.463537h-38.850108c51.712923 0 93.785431 42.072508 93.785431 93.785431v58.761407h38.848048v-58.761407c0-51.712923-42.072508-93.785431-93.783371-93.785431z" fill="#3EC3A4" p-id="825"></path><path d="M204.961345 336.798527c-11.385538 73.004662-39.482638 125.7251-40.572568 127.758673-0.020604 0.041207-0.041207 0.061811-0.041207 0.06181l-43.963917 43.943314a140.885213 140.885213 0 0 0-20.984746 26.739325V442.358904c30.252235-30.252235 69.304259-134.032463 89.639992-192.404463 3.636532-10.435713 18.975896-8.383596 19.769134 2.639319 2.136591 29.720663 0.197794 58.242197-3.846688 84.204767z" fill="#BBF49B" p-id="826"></path><path d="M208.808033 252.59788c-0.793238-11.022915-16.132602-13.077092-19.769134-2.639318a1939.997975 1939.997975 0 0 1-19.095397 52.431988 400.512973 400.512973 0 0 1-3.832266 34.410037c-6.996975 45.334055-21.217566 84.384018-30.839437 107.010869a107.239568 107.239568 0 0 1-22.878214 33.90731l-12.994678 12.988496v44.596447a140.819282 140.819282 0 0 1 20.984746-26.739325l43.963917-43.943313s0.020604-0.020604 0.041207-0.061811c1.089929-2.035634 29.18497-54.754011 40.572568-127.758673 4.044483-25.96463 5.983279-54.486165 3.846688-84.202707z" fill="#9BE69D" p-id="827"></path><path d="M922.219319 217.713961H832.097204V185.846405c0-19.987532 16.202655-36.190187 36.190186-36.190187h17.741742c19.987532 0 36.190187 16.202655 36.190187 36.190187z" fill="#BBF49B" p-id="828"></path><path d="M886.029132 149.656218h-17.741742c-3.673618 0-7.213313 0.556297-10.553153 1.574114 14.836637 4.518365 25.637033 18.302159 25.637034 34.616073v31.867556h38.850108V185.846405c-0.00206-19.987532-16.204715-36.190187-36.192247-36.190187z" fill="#9BE69D" p-id="829"></path><path d="M447.819851 93.674234l-0.06181 0.329657c-11.406141 72.839833-39.420828 125.395442-40.510758 127.431076-0.020604 0.041207-0.041207 0.061811-0.041207 0.061811l-0.309053 0.554236-64.332616 64.332615V199.195464c30.254295-30.254295 68.997265-134.007738 89.324757-192.377678 3.638592-10.42129 18.969715-8.385657 19.773255 2.651681 2.138652 29.718602 0.206036 58.225714-3.842568 84.204767z" fill="#BBF49B" p-id="830"></path><path d="M451.662419 9.467406c-0.801479-11.037337-16.134663-13.070911-19.771195-2.65168a2027.17996 2027.17996 0 0 1-19.097457 52.582394 400.37905 400.37905 0 0 1-3.824024 34.276114c-7.3699 46.866961-21.800647 86.077632-31.422519 108.413972a104.876338 104.876338 0 0 1-22.192115 32.654613l-12.788641 12.788641v38.850109l64.332615-64.332615 0.309054-0.554237s0.020604-0.020604 0.041207-0.06181c1.089929-2.035634 29.102555-54.589183 40.510757-127.431076l0.061811-0.329657c4.046543-25.976992 5.979159-54.484104 3.840507-84.204768z" fill="#9BE69D" p-id="831"></path><path d="M812.146758 20.463537h188.520688c4.817117 0 7.435832 5.670105 4.264941 9.296334-15.059156 17.224592-61.82722 52.361936-192.785629 52.361936h-43.172739z" fill="#BBF49B" p-id="832"></path><path d="M1004.930327 29.75163c-15.061216 17.224592-61.831341 52.374298-192.787689 52.374298h-31.708909c130.956348 0 177.726473-35.149706 192.787689-52.374298 3.172951-3.62623 0.556297-9.292214-4.26494-9.292214h31.708908c4.821237 0 7.437892 5.665984 4.264941 9.292214z" fill="#9BE69D" p-id="833"></path></svg>