<svg class="icon" style="width: 1em;height: 1em;vertical-align: middle;fill: currentColor;overflow: hidden;" viewBox="0 0 1024 1024" version="1.1" xmlns="http://www.w3.org/2000/svg" p-id="672"><path d="M511.151131 401.667618a15.452716 15.452716 0 0 1-15.452716-15.452716V92.823455a15.452716 15.452716 0 0 1 30.905432 0V386.214902a15.452716 15.452716 0 0 1-15.452716 15.452716z" fill="#EAF6FF" p-id="673"></path><path d="M422.761595 459.131118H90.695091a15.452716 15.452716 0 0 0 0 30.905432h332.068565a15.452716 15.452716 0 1 0-0.002061-30.905432zM913.560459 490.03655h-252.064703c-8.53608 0-15.452716-6.918696-15.452716-15.452716s6.916636-15.452716 15.452716-15.452716h252.064703c8.53608 0 15.452716 6.918696 15.452716 15.452716s-6.916636 15.452716-15.452716 15.452716zM453.619639 351.114573a15.456837 15.456837 0 0 1-14.28243-9.543597L335.977082 92.067302a15.454776 15.454776 0 0 1 28.554559-11.828539l103.358066 249.503674a15.454776 15.454776 0 0 1-14.270068 21.372136zM672.057172 878.491045a15.458897 15.458897 0 0 1-14.28243-9.541537l-103.358067-249.503673a15.452716 15.452716 0 0 1 8.36301-20.191549 15.450656 15.450656 0 0 1 20.189489 8.36301l103.358066 249.503673a15.452716 15.452716 0 0 1-14.270068 21.370076zM650.093712 432.511239a15.456837 15.456837 0 0 1-14.282431-9.543597 15.448595 15.448595 0 0 1 8.36301-20.189489l249.505734-103.358066a15.452716 15.452716 0 0 1 20.189488 8.36301 15.448595 15.448595 0 0 1-8.36301 20.189488l-249.505733 103.358067a15.395026 15.395026 0 0 1-5.907058 1.180587z" fill="#C8EFFE" p-id="674"></path><path d="M158.913681 636.274873a15.452716 15.452716 0 0 1-5.91942-29.731026l213.315472-88.688288a15.452716 15.452716 0 0 1 11.828539 28.552499L164.820739 635.094285a15.395026 15.395026 0 0 1-5.907058 1.180588z" fill="#EAF6FF" p-id="675"></path><path d="M372.21061 432.511239a15.405328 15.405328 0 0 1-5.909118-1.180587L116.795758 327.972585a15.452716 15.452716 0 1 1 11.828539-28.552498l249.505734 103.358066a15.452716 15.452716 0 0 1-5.919421 29.733086zM905.506503 621.213626l-249.505733-103.358067a15.456837 15.456837 0 0 0-20.189489 8.36301 15.448595 15.448595 0 0 0 8.36301 20.189489l249.505734 103.358066a15.395026 15.395026 0 0 0 5.907058 1.180588 15.452716 15.452716 0 0 0 5.91942-29.733086zM568.686743 351.114573a15.452716 15.452716 0 0 1-14.270068-21.372136l103.358067-249.503674a15.452716 15.452716 0 1 1 28.552498 11.828539l-103.358066 249.503674a15.460957 15.460957 0 0 1-14.282431 9.543597z" fill="#C8EFFE" p-id="676"></path><path d="M358.766748 856.640905a15.452716 15.452716 0 0 1-14.270069-21.370076l94.832288-227.649412a15.452716 15.452716 0 0 1 28.552499 11.826478L373.049178 847.097307a15.458897 15.458897 0 0 1-14.28243 9.543598z" fill="#EAF6FF" p-id="677"></path><path d="M717.90641 179.645055a15.452716 15.452716 0 0 1-12.937013-23.883718l36.394236-55.914107a15.454776 15.454776 0 0 1 25.902873 16.859943L730.872269 172.621281a15.442414 15.442414 0 0 1-12.965859 7.023774zM141.979565 416.58258c-0.717006 0-1.442253-0.049449-2.173682-0.152467l-62.093134-8.742117a15.452716 15.452716 0 1 1 4.308217-30.602558l62.093134 8.742116a15.452716 15.452716 0 0 1-2.134535 30.755026z" fill="#C8EFFE" p-id="678"></path><path d="M835.672589 412.109533m-15.858607 0a15.858607 15.858607 0 1 0 31.717214 0 15.858607 15.858607 0 1 0-31.717214 0Z" fill="#C8EFFE" p-id="679"></path><path d="M700.282073 930.441016m-15.858608 0a15.858607 15.858607 0 1 0 31.717215 0 15.858607 15.858607 0 1 0-31.717215 0Z" fill="#C8EFFE" p-id="680"></path><path d="M861.554858 127.390151m-15.858607 0a15.858607 15.858607 0 1 0 31.717214 0 15.858607 15.858607 0 1 0-31.717214 0Z" fill="#C8EFFE" p-id="681"></path><path d="M324.348398 17.91899m-15.858607 0a15.858607 15.858607 0 1 0 31.717214 0 15.858607 15.858607 0 1 0-31.717214 0Z" fill="#C8EFFE" p-id="682"></path><path d="M318.820447 758.792247m-15.858608 0a15.858607 15.858607 0 1 0 31.717215 0 15.858607 15.858607 0 1 0-31.717215 0Z" fill="#C8EFFE" p-id="683"></path><path d="M166.559685 825.418177m-15.858607 0a15.858607 15.858607 0 1 0 31.717214 0 15.858607 15.858607 0 1 0-31.717214 0Z" fill="#C8EFFE" p-id="684"></path><path d="M56.8351 285.218011m-15.858608 0a15.858607 15.858607 0 1 0 31.717215 0 15.858607 15.858607 0 1 0-31.717215 0Z" fill="#C8EFFE" p-id="685"></path><path d="M967.1649 662.004675m-15.858607 0a15.858607 15.858607 0 1 0 31.717215 0 15.858607 15.858607 0 1 0-31.717215 0Z" fill="#C8EFFE" p-id="686"></path><path d="M528.229473 1024h-34.152563a13.969255 13.969255 0 0 1-13.969255-13.969255V707.452143c0-17.146334 13.899203-31.045537 31.045536-31.045536s31.045537 13.899203 31.045537 31.045536V1010.030745a13.969255 13.969255 0 0 1-13.969255 13.969255z" fill="#6FD7A3" p-id="687"></path><path d="M513.65035 676.505504a30.872466 30.872466 0 0 0-18.021987 4.087758c9.27163 5.369304 15.522768 15.374422 15.522768 26.858881v293.01028c0 10.713883-6.891911 20.212153-17.076282 23.537577h34.152563a13.969255 13.969255 0 0 0 13.969255-13.969255V708.317495c0.00206-16.336611-12.261215-30.518084-28.546317-31.811991z" fill="#3EC3A4" p-id="688"></path><path d="M511.153191 474.594136m-88.387475 0a88.387475 88.387475 0 1 0 176.77495 0 88.387475 88.387475 0 1 0-176.77495 0Z" fill="#BBF49B" p-id="689"></path><path d="M511.153191 386.206661c-7.874704 0-15.504225 1.044604-22.769062 2.975163 37.77674 10.046326 65.616353 44.470856 65.616353 85.410251s-27.839613 75.363926-65.616353 85.410252a88.459588 88.459588 0 0 0 22.769062 2.975163c48.8141 0 88.387475-39.571315 88.387475-88.387475s-39.573375-88.383354-88.387475-88.383354z" fill="#9BE69D" p-id="690"></path><path d="M511.153191 54.138096m-54.138075 0a54.138075 54.138075 0 1 0 108.276151 0 54.138075 54.138075 0 1 0-108.276151 0Z" fill="#EAF6FF" p-id="691"></path><path d="M511.153191 0.000021a53.940281 53.940281 0 0 0-21.407162 4.405054c19.249963 8.297078 32.730913 27.437843 32.730912 49.733021s-13.478889 41.433882-32.730912 49.733021a53.940281 53.940281 0 0 0 21.407162 4.405054c29.899975 0 54.138075-24.2381 54.138076-54.138075S541.053166 0.000021 511.153191 0.000021z" fill="#C8EFFE" p-id="692"></path><path d="M122.711058 635.491935m-54.138075 0a54.138075 54.138075 0 1 0 108.276151 0 54.138075 54.138075 0 1 0-108.276151 0Z" fill="#EAF6FF" p-id="693"></path><path d="M122.711058 581.35386a53.940281 53.940281 0 0 0-21.407162 4.405054c19.249963 8.297078 32.730913 27.437843 32.730912 49.733021s-13.478889 41.433882-32.730912 49.733022a53.940281 53.940281 0 0 0 21.407162 4.405054c29.899975 0 54.138075-24.2381 54.138076-54.138076s-24.2381-54.138075-54.138076-54.138075z" fill="#C8EFFE" p-id="694"></path><path d="M350.255392 863.034208m-33.495308 0a33.495307 33.495307 0 1 0 66.990615 0 33.495307 33.495307 0 1 0-66.990615 0Z" fill="#C8EFFE" p-id="695"></path><path d="M931.607171 474.594136m-33.495308 0a33.495307 33.495307 0 1 0 66.990615 0 33.495307 33.495307 0 1 0-66.990615 0Z" fill="#EAF6FF" p-id="696"></path><path d="M231.774267 474.594136m-33.495307 0a33.495307 33.495307 0 1 0 66.990614 0 33.495307 33.495307 0 1 0-66.990614 0Z" fill="#EAF6FF" p-id="697"></path><path d="M489.364862 430.951545L237.108545 178.70759a15.41769 15.41769 0 0 0-11.329932-4.938688 15.463018 15.463018 0 1 0-10.9261 26.391179L467.5106 452.805806c3.01637 3.018431 6.972265 4.526616 10.926101 4.526616s7.90973-1.508185 10.9261-4.526616a15.452716 15.452716 0 0 0 0.002061-21.854261zM819.389547 166.370142a15.448595 15.448595 0 0 0-21.852201-0.004121L532.93946 430.951545a15.452716 15.452716 0 0 0 10.928161 26.378817 15.407388 15.407388 0 0 0 10.928161-4.526616l264.591705-264.581403a15.452716 15.452716 0 0 0 0.00206-21.852201z" fill="#EAF6FF" p-id="698"></path><path d="M554.795782 496.382465a15.452716 15.452716 0 0 0-21.854261 21.852201l230.006466 229.994104c3.018431 3.01637 6.972265 4.524555 10.9261 4.524555s7.90973-1.508185 10.928161-4.526615a15.448595 15.448595 0 0 0-0.00206-21.852201z" fill="#C8EFFE" p-id="699"></path><path d="M489.364862 496.382465a15.452716 15.452716 0 0 0-21.852201 0L202.925077 760.965929a15.452716 15.452716 0 0 0 0 21.852201c3.01637 3.018431 6.972265 4.526616 10.9261 4.526615s7.90973-1.508185 10.9261-4.526615l264.585524-264.585524a15.446535 15.446535 0 0 0 0.002061-21.850141z" fill="#EAF6FF" p-id="700"></path><path d="M808.453145 771.89409m-54.138075 0a54.138075 54.138075 0 1 0 108.27615 0 54.138075 54.138075 0 1 0-108.27615 0Z" fill="#EAF6FF" p-id="701"></path><path d="M808.453145 717.756014a53.940281 53.940281 0 0 0-21.407163 4.405054c19.249963 8.297078 32.730913 27.437843 32.730913 49.733022s-13.478889 41.433882-32.730913 49.733021a53.940281 53.940281 0 0 0 21.407163 4.405054c29.899975 0 54.138075-24.2381 54.138075-54.138075s-24.24016-54.138075-54.138075-54.138076z" fill="#C8EFFE" p-id="702"></path><path d="M717.918773 267.581311m-33.495308 0a33.495307 33.495307 0 1 0 66.990615 0 33.495307 33.495307 0 1 0-66.990615 0Z" fill="#C8EFFE" p-id="703"></path><path d="M213.853237 177.294182m-33.495307 0a33.495307 33.495307 0 1 0 66.990615 0 33.495307 33.495307 0 1 0-66.990615 0Z" fill="#C8EFFE" p-id="704"></path></svg>