<svg class="icon" style="width: 1em;height: 1em;vertical-align: middle;fill: currentColor;overflow: hidden;" viewBox="0 0 1024 1024" version="1.1" xmlns="http://www.w3.org/2000/svg" p-id="964"><path d="M399.172507 913.813891l56.561062 48.680177a119.75237 119.75237 0 0 0 78.120693 28.989296h86.578478c19.252024 0 38.219718-4.641996 55.296-13.530398l37.54392-19.544596c14.39163-7.491477 14.830487-27.924089 0.772636-36.025432l-42.282753-24.367904a95.151646 95.151646 0 0 0-47.44808-12.708314l-110.81658-0.061811a95.155767 95.155767 0 0 0-25.923477 3.585031z" fill="#9BE69D" p-id="965"></path><path d="M713.276781 958.400129l-37.539799 19.552837a119.925441 119.925441 0 0 1-55.300121 13.536579h-56.474527c19.243783 0 38.219718-4.656419 55.279517-13.536579l37.560403-19.552837c14.381328-7.479115 14.814004-27.917907 0.762334-36.015131l-42.278632-26.434447a95.588443 95.588443 0 0 0-27.979719-10.672676l37.004105 0.020604c16.66833 0.020604 33.027606 4.409175 47.450141 12.712434l42.278632 24.374085c14.072274 8.097223 13.618994 28.536016-0.762334 36.015131z" fill="#6FD7A3" p-id="966"></path><path d="M399.174567 913.811831l-34.140201 15.452716-121.581972 55.032274a80.638455 80.638455 0 0 1-33.274849 7.190664H141.258431c-15.905996 0-31.441127-4.697626-44.668652-13.495372L24.312274 929.96507c-12.11493-8.035412-13.021489-25.48668-1.813119-34.737706l60.718873-50.190422a99.161111 99.161111 0 0 1 63.129497-22.705191h58.576097c16.44169 0 32.65674 4.100121 47.120483 11.929496l118.553239 64.097868z" fill="#9BE69D" p-id="967"></path><path d="M252.046165 834.265368a99.10136 99.10136 0 0 0-47.126664-11.925376H148.436732a99.070455 99.070455 0 0 1 47.126664 11.925376l133.130302 71.978753c5.740169 3.102905 5.445537 11.439131-0.498607 14.129964l-141.225465 63.926857a80.683783 80.683783 0 0 1-33.274849 7.180362h56.480708a80.683783 80.683783 0 0 0 33.274849-7.180362l155.722173-70.489111z" fill="#6FD7A3" p-id="968"></path><path d="M399.174567 913.811831l-34.140201 15.452716h-149.808933c-8.529899 0-15.452716-6.922817-15.452717-15.452716s6.922817-15.452716 15.452717-15.452716h155.371911z" fill="#6FD7A3" p-id="969"></path><path d="M399.174567 913.811831l-34.140201 15.452716h-56.453923l19.614648-8.880161c5.954447-2.699074 6.242897-11.043541 0.494486-14.134084l-14.587364-7.891187h56.495131z" fill="#3EC3A4" p-id="970"></path><path d="M399.174567 929.266608a15.450656 15.450656 0 0 1-13.005006-7.104129l-116.422825-181.260362c-17.191662-26.768225-28.290833-56.293215-32.986398-87.759067l-26.498318-187.958599a15.452716 15.452716 0 1 1 30.567533-4.561642l26.498318 187.958599c4.046551 27.112306 13.608692 52.553658 28.422696 75.617353l81.328676 126.621617-24.233979-232.814744a224.99361 224.99361 0 0 1 19.497207-117.549843l66.512611-142.770737a15.452716 15.452716 0 0 1 28.060073 12.951437l-66.512612 142.770736a194.073755 194.073755 0 0 0-16.818736 101.396604l30.959002 297.405038a15.452716 15.452716 0 0 1-15.368242 17.057739z" fill="#3EC3A4" p-id="971"></path><path d="M844.027364 366.758889a15.452716 15.452716 0 0 0-15.452716 15.452717V639.701247c0 42.880258-17.473932 84.785964-47.936386 114.96821l-20.19567 19.987573a162.202012 162.202012 0 0 1-69.850399 40.737481l-264.027171 74.618077 89.557763-202.949795a166.703903 166.703903 0 0 1 28.200177-43.817723l116.946157-131.24301a15.454777 15.454777 0 0 0-23.073996-20.560354l-116.935855 131.232708a197.475412 197.475412 0 0 0-33.412894 51.914946l-102.812072 232.985755a15.452716 15.452716 0 0 0 18.339284 21.110471l295.620764-83.547687a193.19192 193.19192 0 0 0 83.187123-48.515348l20.19773-19.991694c36.285038-35.95126 57.094696-85.859412 57.094696-136.927549V382.209545a15.442414 15.442414 0 0 0-15.446535-15.450656z" fill="#6FD7A3" p-id="972"></path><path d="M221.406519 359.673304l-46.160354-20.42231a86.850447 86.850447 0 0 0-63.568354-2.639324l-42.828749 14.838728a81.421392 81.421392 0 0 1-47.975533 1.64623l-11.280483-3.059638c-7.499718-2.033577-12.831936 7.198905-7.320467 12.677408L35.139477 395.383501a74.822052 74.822052 0 0 0 52.751453 21.757425h11.523605a74.832354 74.832354 0 0 0 36.608515-9.566262z" fill="#FE646F" p-id="973"></path><path d="M22.056177 353.370656c-0.393529-0.100958-0.793239-0.166889-1.184708-0.274028l-11.280483-3.059638c-4.646117-1.260942-8.451606 1.804877-9.372588 5.620668 7.297803 0.059751 14.589425-0.811783 21.837779-2.287002z" fill="#FE646F" p-id="974"></path><path d="M175.246165 339.250994a86.842205 86.842205 0 0 0-55.386656-5.025223c17.949875 4.128966 35.813215 12.559968 51.974696 20.02878 4.753256 2.196346 5.00462 8.832773 0.440918 11.399984-25.758648 14.488467-69.644362 43.731187-97.521063 50.299622a74.770543 74.770543 0 0 0 13.134809 1.182648h11.523606a74.832354 74.832354 0 0 0 36.608515-9.566262l85.385529-47.8993z" fill="#FD4755" p-id="975"></path><path d="M221.406519 359.673304l-50.227509 79.36103a70.732233 70.732233 0 0 0-8.812169 20.508845l-21.197006 83.972121c-1.670954 6.622004 5.587702 11.898592 11.369078 8.264112l77.451075-48.684297a51.7666 51.7666 0 0 0 21.120773-61.470906z" fill="#FE646F" p-id="976"></path><path d="M251.110761 441.624209l-29.704242-81.950905-23.424257 37.008225c31.888225 84.742696 24.854149 89.337304-54.480097 137.590986l-2.33233 9.240724c-1.670954 6.622004 5.587702 11.898592 11.369078 8.262053l77.451075-48.682238a51.760419 51.760419 0 0 0 21.120773-61.468845z" fill="#FD4755" p-id="977"></path><path d="M205.162624 309.128499l16.243895 50.544805 75.88932-101.303888a90.182052 90.182052 0 0 0 15.724684-74.226607l-8.235267-35.907992c-1.623565-7.079404-11.317569-8.031292-14.288612-1.405167l-14.725409 32.848354a90.202656 90.202656 0 0 1-19.254084 27.600612l-34.465739 33.688982a66.755734 66.755734 0 0 0-16.888788 68.160901z" fill="#FE646F" p-id="978"></path><path d="M313.018463 184.142809l-8.235268-35.907992c-1.623565-7.079404-11.317569-8.031292-14.288611-1.405167l-14.725409 32.848354c-0.296692 0.663437-0.62429 1.30833-0.935404 1.963525l0.57278 2.50128c14.7934 43.854809-31.072322 98.003187-65.317601 140.320966l11.315509 35.207468 75.88932-101.303887a90.161449 90.161449 0 0 0 15.724684-74.224547z" fill="#FD4755" p-id="979"></path><path d="M500.286841 234.621682l56.942229-25.192048a56.882479 56.882479 0 0 1 41.646101-1.728644l61.118584 21.176402a56.882479 56.882479 0 0 0 33.524152 1.149682l18.584467-5.041706c7.499718-2.033577 12.831936 7.198905 7.320467 12.677409l-38.011622 37.782921a57.236861 57.236861 0 0 1-40.352193 16.643606h-23.374809c-9.807324 0-19.449819-2.519823-28.004442-7.318407z" fill="#FE646F" p-id="980"></path><path d="M712.102374 224.983308l-18.584467 5.041706a56.736193 56.736193 0 0 1-9.475605 1.695678c0.179252 2.035638-0.461521 4.180475-2.231372 5.940024l-38.011622 37.782922c-9.059412 10.106076-21.557569 14.33806-34.669714 15.973988 2.822696 0.426495 5.680419 0.669618 8.554623 0.669617h23.374809a57.236861 57.236861 0 0 0 40.352193-16.643605l38.011622-37.782922c5.511469-5.478503 0.179252-14.710986-7.320467-12.677408z" fill="#FD4755" p-id="981"></path><path d="M500.286841 234.621682l-50.227509 79.36103a70.732233 70.732233 0 0 0-8.812169 20.508845l-21.197006 83.972121c-1.670954 6.622004 5.587702 11.898592 11.369078 8.264113l77.451075-48.684298a51.756298 51.756298 0 0 0 21.118712-61.470905z" fill="#FE646F" p-id="982"></path><path d="M529.991082 316.570527l-29.704241-81.950905-23.914624 37.787042 16.009014 44.163863a51.7666 51.7666 0 0 1-21.120772 61.470906l-48.739928 30.635525-2.470374 9.78466c-1.670954 6.622004 5.587702 11.898592 11.369078 8.262052l77.451075-48.684298a51.756298 51.756298 0 0 0 20.107074-23.61175 51.750117 51.750117 0 0 0 1.013698-37.857095z" fill="#FD4755" p-id="983"></path><path d="M649.735211 501.712612l46.160354-20.42231a86.850447 86.850447 0 0 1 63.568355-2.639324l42.828748 14.838728a81.421392 81.421392 0 0 0 47.975533 1.64623l11.280483-3.059638c7.499718-2.035638 12.831936 7.198905 7.320467 12.677408l-32.866897 32.669103a74.822052 74.822052 0 0 1-52.751453 21.757424h-11.523606a74.832354 74.832354 0 0 1-36.608515-9.566261z" fill="#FE646F" p-id="984"></path><path d="M861.550744 492.074237l-11.280482 3.059638a81.29571 81.29571 0 0 1-16.923815 2.686713c0.515091 2.311726-0.028845 4.883058-2.087147 6.928998l-32.864837 32.669102c-10.969368 11.338173-25.140539 17.813891-40.207968 20.500604 4.452443 0.820024 8.983179 1.256821 13.544821 1.256821h11.523606a74.826173 74.826173 0 0 0 52.751452-21.757425l32.864837-32.669102c5.511469-5.476443 0.179252-14.708926-7.320467-12.675349z" fill="#FD4755" p-id="985"></path><path d="M649.737272 501.710551l-48.311373-21.374197a48.268105 48.268105 0 0 0-35.333151-1.466978l-51.855195 17.966358a48.266044 48.266044 0 0 1-28.443299 0.976612l-15.765892-4.277312c-6.362398-1.726584-10.886954 6.106913-6.209931 10.755091l32.248788 32.055114a48.558616 48.558616 0 0 0 34.234978 14.119662h19.830986c8.319742 0 16.501441-2.138656 23.758036-6.207871z" fill="#FE646F" p-id="986"></path><path d="M479.159887 496.01159l-9.131525-2.478616c-4.131026-1.120837-7.468813 1.792515-8.035412 5.243622 5.834946-0.294632 11.527726-1.302149 17.166937-2.765006z" fill="#FE646F" p-id="987"></path><path d="M601.421779 480.336354a48.272225 48.272225 0 0 0-35.331091-1.466978l-3.531461 1.223855c12.926712 4.275252 26.16866 11.210431 37.393513 16.464355 4.687324 2.194286 4.955171 8.7586 0.465642 11.336112-21.347412 12.259155-59.113851 36.46841-79.369271 41.679067 3.026672 0.587203 6.123396 0.894197 9.251026 0.894197h19.833046c8.319742 0 16.501441-2.138656 23.758036-6.207871l75.843992-42.546479z" fill="#FD4755" p-id="988"></path><path d="M649.735211 501.712612l50.227509 79.36103a70.732233 70.732233 0 0 1 8.812169 20.508845l21.197006 83.972121c1.670954 6.622004-5.587702 11.898592-11.369078 8.264112l-77.451075-48.684297a51.7666 51.7666 0 0 1-21.120772-61.470906z" fill="#FE646F" p-id="989"></path><path d="M729.971895 685.554608l-21.197006-83.972121a70.684845 70.684845 0 0 0-8.812169-20.508845l-50.227509-79.36103-13.635477 37.618092c15.918358 24.458559 33.763155 52.666978 35.065304 62.253843l18.726632 74.185401 28.711147 18.046712c5.781376 3.634479 13.040032-1.642109 11.369078-8.262052z" fill="#FD4755" p-id="990"></path><path d="M844.027364 293.049433l37.521256-16.600338a70.590068 70.590068 0 0 1 51.671823-2.144837l34.813939 12.06136a66.191195 66.191195 0 0 0 38.998536 1.339235l9.170672-2.486857c6.096612-1.654471 10.429553 5.851429 5.950325 10.303871l-26.714655 26.553948a60.821891 60.821891 0 0 1-42.878198 17.686149h-9.366406a60.842495 60.842495 0 0 1-29.757811-7.775807z" fill="#FE646F" p-id="991"></path><path d="M1016.20359 285.215936l-9.170672 2.486857a66.081996 66.081996 0 0 1-20.795236 2.183984c0.418254 1.87905-0.022664 3.968258-1.695678 5.63303l-26.714656 26.553948c-8.900765 8.544322-18.223903 13.670503-27.786044 16.21505 4.304097 0.953948 8.707091 1.469038 13.151292 1.469038h9.366406c16.068765 0 31.482334-6.358278 42.880258-17.686149l26.714655-26.553948c4.479227-4.450382 0.146286-11.956282-5.950325-10.30181z" fill="#FD4755" p-id="992"></path><path d="M844.027364 293.049433l-46.286036-20.47794a46.244829 46.244829 0 0 0-33.851751-1.405167l-49.681513 17.212266a46.25307 46.25307 0 0 1-27.25035 0.935404l-15.106575-4.09806c-6.096612-1.654471-10.429553 5.851429-5.950326 10.303871l30.897191 30.711758a46.522978 46.522978 0 0 0 32.800966 13.528338h19.00066c7.971541 0 15.809159-2.048 22.762881-5.948265z" fill="#FE646F" p-id="993"></path><path d="M797.741328 272.571493a46.242769 46.242769 0 0 0-33.851751-1.405167l-4.170173 1.444314c11.956282 4.052732 24.145384 10.390406 34.570817 15.285827 4.687324 2.200467 4.94693 8.754479 0.459461 11.338173-20.269843 11.674012-55.419622 34.138141-74.848837 39.478599 3.166777 0.675799 6.411847 1.048724 9.700185 1.048725h19.00066c7.971541 0 15.809159-2.048 22.762881-5.948266l72.664854-40.762205z" fill="#FD4755" p-id="994"></path><path d="M844.027364 293.049433l40.828137 64.509939a57.451139 57.451139 0 0 1 7.161819 16.672451l17.230809 68.257738c1.357779 5.381666-4.543099 9.67134-9.242785 6.716781l-62.956426-39.573376a42.084958 42.084958 0 0 1-17.168998-49.967904z" fill="#FE646F" p-id="995"></path><path d="M909.248129 442.487501l-17.230809-68.257738a57.498527 57.498527 0 0 0-7.161819-16.672451l-40.828137-64.50994-13.608692 37.54598c11.591598 17.997264 23.053392 36.740378 23.988797 43.636411l13.895082 55.044635 31.704853 19.927823c4.699686 2.95662 10.600563-1.330994 9.240725-6.71472z" fill="#FD4755" p-id="996"></path><path d="M221.406519 359.673304l54.989006-25.192048a53.19237 53.19237 0 0 1 40.21827-1.728644l59.023195 21.176402a53.140861 53.140861 0 0 0 32.374471 1.149682l17.945754-5.041706c7.242173-2.035638 12.391018 7.198905 7.069103 12.677408l-36.707413 37.782922c-10.35538 10.660314-24.365843 16.643606-38.967629 16.643606h-22.573328a53.796056 53.796056 0 0 1-27.042254-7.318407z" fill="#FE646F" p-id="997"></path><path d="M425.957215 350.03699l-17.945754 5.041706a53.301569 53.301569 0 0 1-10.427493 1.798696c0.144225 2.004732-0.488306 4.108362-2.169562 5.837006l-36.707412 37.782922c-8.585529 9.904161-20.321352 14.179412-32.718551 15.885392 2.896869 0.484185 5.832885 0.758213 8.789505 0.758214h22.573328c14.601787 0 28.610189-5.983292 38.967629-16.643606l36.707413-37.782922c5.321915-5.478503 0.17307-14.713046-7.069103-12.677408z" fill="#FD4755" p-id="998"></path><path d="M500.284781 234.621682l-39.451815-18.217722c-17.173119-7.930334-36.585851-8.770962-54.32969-2.354994l-36.604395 13.237827a66.811364 66.811364 0 0 1-41.003267 1.469038l-9.642495-2.72998c-6.409787-1.815179-10.965247 6.422149-6.25526 11.309328l28.088918 29.141763c11.981006 12.430165 28.189875 19.408612 45.082784 19.408611h9.848532a61.876797 61.876797 0 0 0 31.28866-8.53402z" fill="#FE646F" p-id="999"></path><path d="M320.16792 226.283396l-0.912741-0.257545c-2.826817-0.801481-5.29101 0.356443-6.760048 2.317908a148.072048 148.072048 0 0 0 7.672789-2.060363z" fill="#FE646F" p-id="1000"></path><path d="M460.832966 216.401899c-17.173119-7.930334-36.585851-8.770962-54.32969-2.354994l-2.705256 0.978672c11.397924 3.896145 22.563026 9.32932 32.912225 14.323638 4.615211 2.227252 4.868636 8.676185 0.455341 11.280483-22.880322 13.507734-48.389666 31.853199-74.17922 40.690093a61.563622 61.563622 0 0 0 23.185256 4.561642h9.848531a61.864435 61.864435 0 0 0 31.2866-8.534021l72.975967-42.72779z" fill="#FD4755" p-id="1001"></path><path d="M500.286841 250.074398a15.452716 15.452716 0 0 1-14.752193-10.851927L447.139799 116.130254a15.452716 15.452716 0 0 1 29.502326-9.203638l23.537577 75.458704 13.703469-44.571815a15.452716 15.452716 0 0 1 29.541473 9.082076l-28.367067 92.265079a15.452716 15.452716 0 0 1-14.73777 10.911678l-0.032966 0.00206zM649.739332 517.165328a15.452716 15.452716 0 0 1-14.502889-10.110197l-28.136306-76.332298a15.452716 15.452716 0 0 1 28.997537-10.689159l16.017256 43.457159 17.626398-34.053666a15.452716 15.452716 0 0 1 27.446084 14.206197l-33.730189 65.169256a15.446535 15.446535 0 0 1-13.717891 8.352708zM844.029425 308.502149l-0.407952-0.004121a15.452716 15.452716 0 0 1-14.294793-10.676797l-28.723509-88.486374a15.454777 15.454777 0 0 1 29.395187-9.543597l15.238439 46.945352 17.508958-45.647324a15.448596 15.448596 0 0 1 19.960788-8.892523 15.450656 15.450656 0 0 1 8.892523 19.960788l-33.149167 86.426012a15.440354 15.440354 0 0 1-14.420474 9.918584z" fill="#FD4755" p-id="1002"></path><path d="M793.979107 142.010463m-15.858608 0a15.858608 15.858608 0 1 0 31.717215 0 15.858608 15.858608 0 1 0-31.717215 0Z" fill="#FE646F" p-id="1003"></path><path d="M548.948475 80.21196m-15.858608 0a15.858608 15.858608 0 1 0 31.717215 0 15.858608 15.858608 0 1 0-31.717215 0Z" fill="#FE646F" p-id="1004"></path><path d="M898.10569 152.312274m-15.858608 0a15.858608 15.858608 0 1 0 31.717216 0 15.858608 15.858608 0 1 0-31.717216 0Z" fill="#FE646F" p-id="1005"></path><path d="M440.750616 48.369062m-15.858608 0a15.858608 15.858608 0 1 0 31.717215 0 15.858608 15.858608 0 1 0-31.717215 0Z" fill="#FE646F" p-id="1006"></path><path d="M599.013215 367.195686m-15.858607 0a15.858608 15.858608 0 1 0 31.717215 0 15.858608 15.858608 0 1 0-31.717215 0Z" fill="#FE646F" p-id="1007"></path></svg>