<?xml version="1.0" standalone="no"?><!DOCTYPE svg PUBLIC "-//W3C//DTD SVG 1.1//EN" "http://www.w3.org/Graphics/SVG/1.1/DTD/svg11.dtd"><svg t="1761291717646" class="icon" viewBox="0 0 1024 1024" version="1.1" xmlns="http://www.w3.org/2000/svg" p-id="3800" xmlns:xlink="http://www.w3.org/1999/xlink" width="200" height="200"><path d="M659.42 356L554 103.76c-1.24-2.52-2.98-5.64-5.16-9.42a83.42 83.42 0 0 0-8-11.28 45.48 45.48 0 0 0-11.74-9.88 31.44 31.44 0 0 0-16.48-4.24q-17.88 0-28.22 10.82a75.04 75.04 0 0 0-16 25.88l-108.16 252.14-290.72 26.34a38.2 38.2 0 0 0-18.82 9.4 32.76 32.76 0 0 0-10.34 20.7 37.58 37.58 0 0 0 6.1 25.88 113.16 113.16 0 0 0 19.3 23.04c0.62 0.64 4 3.62 10.34 8.94s14.28 12.24 24 20.7 20.7 17.88 32.92 28.22 24.62 20.86 37.16 31.52c0.62 0.52 206.12-60.54 213.7-64.4a60.6 60.6 0 0 1 34.28-54 58.9 58.9 0 0 1 26-6 60.6 60.6 0 0 1 60 60 58.86 58.86 0 0 1-7.38 28.5c2.98 3.48 115.46 126 116.52 127.22a47.44 47.44 0 0 1 17.74-3.46h2.5c2-4.86 150.98-269.44 152.32-272.5L659.42 356z m317.06 38.56q-7.52-6.56-26.36-11.28L830.62 372c-0.84 1.78-158.14 282.84-160.94 286.82 0 0.16-0.14 0.34-0.22 0.5a48.16 48.16 0 0 1 10.24 29.54 48.62 48.62 0 0 1-97.22 0 47.72 47.72 0 0 1 2.84-16.14c-0.44-0.94-116.8-126.28-119.2-128.94a58.48 58.48 0 0 1-22.12 4.34 60.2 60.2 0 0 1-47.04-23.08l-189.04 59.68s40 34.38 62 53.42q-17.84 73.38-32 131.72-6.56 25.38-12.7 49.86t-10.82 44.7q-4.72 20.22-8.46 34.8t-4.7 18.34a24.9 24.9 0 0 0 1.88 16.48 34.82 34.82 0 0 0 11.76 13.64 40.4 40.4 0 0 0 17.86 7.04 32.28 32.28 0 0 0 19.3-3.28q4.68-1.9 18.34-9.42t32.46-18.82q18.82-11.28 41.86-24.46t46.58-26.34q54.58-31.04 121.36-70.56l245.56 143c3.12 1.26 7.68 2.98 13.64 5.18a43.44 43.44 0 0 0 13.64 3.3 52.48 52.48 0 0 0 25.4-6.12q11.28-6.12 8.46-24.92-0.92-3.78-3.76-18.36t-7.06-35.28q-4.22-20.7-8.94-46.1t-10.34-50.8q-12.24-60.22-28.22-134.54l194.76-175q12.22-14 20.22-24a35.56 35.56 0 0 0 8-23.06c0-9.42-2.5-16.3-7.52-20.7zM170.84 551.8l-0.44 0.14 0.44-0.14z" p-id="3801"></path></svg>